<?xml version="1.0" encoding="UTF-8"?>
<svg xmlns="http://www.w3.org/2000/svg" xmlns:xlink="http://www.w3.org/1999/xlink" width="796pt" height="796pt" viewBox="0 0 796 796" version="1.1">
<g id="surface12">
<rect x="0" y="0" width="796" height="796" style="fill:rgb(100%,100%,100%);fill-opacity:1;stroke:none;"/>
<path style="fill:none;stroke-width:0.5;stroke-linecap:round;stroke-linejoin:round;stroke:rgb(0%,0%,0%);stroke-opacity:1;stroke-miterlimit:10;" d="M 0 400 L 400 400 " transform="matrix(1.99,0,0,1.99,0,0)"/>
<path style="fill:none;stroke-width:0.5;stroke-linecap:round;stroke-linejoin:round;stroke:rgb(0%,0%,0%);stroke-opacity:1;stroke-miterlimit:10;" d="M 0 0 L 400 0 " transform="matrix(1.99,0,0,1.99,0,0)"/>
<path style="fill:none;stroke-width:0.5;stroke-linecap:round;stroke-linejoin:round;stroke:rgb(0%,0%,0%);stroke-opacity:1;stroke-miterlimit:10;" d="M 0 0 L 0 400 " transform="matrix(1.99,0,0,1.99,0,0)"/>
<path style="fill:none;stroke-width:0.5;stroke-linecap:round;stroke-linejoin:round;stroke:rgb(0%,0%,0%);stroke-opacity:1;stroke-miterlimit:10;" d="M 400 0 L 400 400 " transform="matrix(1.99,0,0,1.99,0,0)"/>
<path style="fill:none;stroke-width:1;stroke-linecap:round;stroke-linejoin:round;stroke:rgb(49.803922%,0%,0%);stroke-opacity:1;stroke-miterlimit:10;" d="M 400 200 L 399.346341 210.048288 L 398.188207 220.0318 L 396.533448 229.923053 L 394.38403 239.700455 L 391.751727 249.336526 L 388.640468 258.80771 L 385.065955 268.092415 L 381.034077 277.165122 L 376.558574 286.006203 L 371.653188 294.592101 L 366.333621 302.903188 L 360.611652 310.919834 L 354.504947 318.620446 L 348.033134 325.989322 L 341.209956 333.006831 L 334.057004 339.659234 L 326.593907 345.928863 L 318.840295 351.800016 L 310.815798 357.262877 L 302.54397 362.303706 L 294.044441 366.912688 L 285.344692 371.076084 L 276.46239 374.788003 L 267.423053 378.042557 L 258.252198 380.827968 L 248.97142 383.144237 L 239.604271 384.985474 L 230.176272 386.349717 L 220.71294 387.235003 L 211.235867 387.639369 L 201.770572 387.56674 L 192.342572 387.017117 L 182.973461 385.996388 L 173.686793 384.506517 L 164.508087 382.553392 L 155.458935 380.146828 L 146.56093 377.292714 L 137.837626 373.998901 L 129.310616 370.27913 L 120.999529 366.141253 L 112.925958 361.600974 L 105.107569 356.670069 L 97.565955 351.36228 L 90.316818 345.69331 L 83.377827 339.678863 L 76.764683 333.334642 L 70.495053 326.682239 L 64.582679 319.735396 L 59.039337 312.515704 L 53.878769 305.042792 L 49.112751 297.336291 L 44.751099 289.415829 L 40.801665 281.304962 L 37.276225 273.02332 L 34.180669 264.592494 L 31.518923 256.03604 L 29.296875 247.37555 L 27.520415 238.634579 L 26.189541 229.832758 L 25.306219 220.997566 L 24.870446 212.148634 L 24.880261 203.307553 L 25.337626 194.499843 L 26.234689 185.747095 L 27.569488 177.068938 L 29.338097 168.490892 L 31.5307 160.030622 L 34.14141 151.711683 L 37.160411 143.553706 L 40.581815 135.578282 L 44.389918 127.801115 L 48.576869 120.24576 L 53.128926 112.927921 L 58.032349 105.865264 L 63.273398 99.075455 L 68.838332 92.574199 L 74.709485 86.377198 L 80.873116 80.496231 L 87.307632 74.948964 L 93.999293 69.74521 L 100.92847 64.896749 L 108.077497 60.415358 L 115.42478 56.308888 L 122.950691 52.589117 L 130.637563 49.259972 L 138.463803 46.331266 L 146.40782 43.808888 L 154.449984 41.692839 L 162.568703 39.99097 L 170.744347 38.703282 L 178.953361 37.8337 L 187.176115 37.378298 L 195.391018 37.339039 L 203.576476 37.71396 L 211.712861 38.501099 L 219.780543 39.692604 L 227.755967 41.286511 L 235.62343 43.276932 L 243.359375 45.654052 L 250.9481 48.411982 L 258.368012 51.542871 L 265.603408 55.03494 L 272.634658 58.878376 L 279.446058 63.059438 L 286.021906 67.570273 L 292.344535 72.393216 L 298.400204 77.516489 L 304.175173 82.924388 L 309.6557 88.603172 L 314.830009 94.537139 L 319.686322 100.708621 L 324.212861 107.099953 L 328.399812 113.693467 L 332.237359 120.473461 L 335.719614 127.422268 L 338.838725 134.518295 L 341.588803 141.743876 L 343.965923 149.079381 L 345.962233 156.505182 L 347.577732 164.003612 L 348.808496 171.555041 L 349.654523 179.137877 L 350.115813 186.734454 L 350.194331 194.323178 L 349.888112 201.888348 L 349.203046 209.406407 L 348.141096 216.859689 L 346.710113 224.232491 L 344.91206 231.501256 L 342.75479 238.652246 L 340.248116 245.665829 L 337.395964 252.526303 L 334.210113 259.216002 L 330.700377 265.717258 L 326.878533 272.016332 L 322.754397 278.097519 L 318.339746 283.947079 L 313.64832 289.549309 L 308.69386 294.894394 L 303.490107 299.96663 L 298.052764 304.758166 L 292.395572 309.255261 L 286.534234 313.450063 L 280.486416 317.332758 L 274.267823 320.89353 L 267.894158 324.128455 L 261.38505 327.027717 L 254.756203 329.58739 L 248.025283 331.803549 L 241.209956 333.672268 L 234.329852 335.187657 L 227.400675 336.35168 L 220.442054 337.162374 L 213.471655 337.617776 L 206.507145 337.721812 L 199.568153 337.474482 L 192.66842 336.877748 L 185.827575 335.9375 L 179.063285 334.653737 L 172.393216 333.038238 L 165.831109 331.091002 L 159.394629 328.821844 L 153.099482 326.238615 L 146.963332 323.349168 L 140.995996 320.163317 L 135.217101 316.688913 L 129.636464 312.939698 L 124.267823 308.925487 L 119.124921 304.658056 L 114.219535 300.149183 L 109.561479 295.41261 L 105.162531 290.462076 L 101.032506 285.311322 L 97.179256 279.974089 L 93.612594 274.46608 L 90.338411 268.802999 L 87.362594 262.998587 L 84.692996 257.070509 L 82.333543 251.032506 L 80.28816 244.904209 L 78.562736 238.697393 L 77.155308 232.433653 L 76.069802 226.124764 L 75.308182 219.790358 L 74.868483 213.444174 L 74.750707 207.103879 L 74.952889 200.787139 L 75.471106 194.507695 L 76.305355 188.283213 L 77.447786 182.129397 L 78.896435 176.059987 L 80.643452 170.090688 L 82.684909 164.237202 L 85.010992 158.511307 L 87.615813 152.930669 L 90.489557 147.505104 L 93.622409 142.248351 L 97.00848 137.176115 L 100.632067 132.296247 L 104.48728 127.620524 L 108.558417 123.162688 L 112.835663 118.928628 L 117.307239 114.930119 L 121.959406 111.176979 L 126.780386 107.675094 L 131.752513 104.432318 L 136.867933 101.454538 L 142.107019 98.749607 L 147.459956 96.319488 L 152.909077 94.172032 L 158.440641 92.309202 L 164.040908 90.734925 L 169.694174 89.449199 L 175.382773 88.455952 L 181.096891 87.753219 L 186.81886 87.341002 L 192.532977 87.221263 L 198.227465 87.388112 L 203.884658 87.843514 L 209.492776 88.579617 L 215.036118 89.59642 L 220.500942 90.888034 L 225.875471 92.446608 L 231.144001 94.270179 L 236.294755 96.350895 L 241.315955 98.680905 L 246.19386 101.252356 L 250.918656 104.057396 L 255.478565 107.086212 L 259.863772 110.330952 L 264.0625 113.779837 L 268.066897 117.425016 L 271.869111 121.252748 L 275.457365 125.251256 L 278.825769 129.412688 L 281.968436 133.723304 L 284.877513 138.169362 L 287.547111 142.741049 L 289.973304 147.42266 L 292.150204 152.204381 L 294.073885 157.070509 L 295.744347 162.009265 L 297.1557 167.004947 L 298.307946 172.047739 L 299.199121 177.123901 L 299.831187 182.217729 L 300.202183 187.315484 L 300.31407 192.407349 L 300.168813 197.477622 L 299.768373 202.512563 L 299.114714 207.502356 L 298.213725 212.43326 L 297.069331 217.291536 L 295.685459 222.065405 L 294.067996 226.745053 L 292.222833 231.318703 L 290.155857 235.774576 L 287.874921 240.100895 L 285.38984 244.289808 L 282.704538 248.329538 L 279.832758 252.214196 L 276.778423 255.930041 L 273.553313 259.473147 L 270.167242 262.8337 L 266.630025 266.003847 L 262.953439 268.979664 L 259.145336 271.751335 L 255.219457 274.316897 L 251.185616 276.668499 L 247.053628 278.804177 L 242.839196 280.720006 L 238.552136 282.410097 L 234.202261 283.876413 L 229.803313 285.113065 L 225.36707 286.122016 L 220.905308 286.89934 L 216.429805 287.447001 L 211.95234 287.76696 L 207.484689 287.857255 L 203.038631 287.723775 L 198.623979 287.364557 L 194.254476 286.783527 L 189.939934 285.986573 L 185.69017 284.97566 L 181.51696 283.756674 L 177.428156 282.333543 L 173.4375 280.712155 L 169.552842 278.898398 L 165.782035 276.898163 L 162.134893 274.721263 L 158.619268 272.371624 L 155.244975 269.859061 L 152.017902 267.191426 L 148.943938 264.37657 L 146.032899 261.424309 L 143.288709 258.340531 L 140.717258 255.138976 L 138.322472 251.827497 L 136.112202 248.413945 L 134.086448 244.910097 L 132.251099 241.325769 L 130.608119 237.672739 L 129.161432 233.956894 L 127.91104 230.193938 L 126.858904 226.389761 L 126.006988 222.55614 L 125.353329 218.704852 L 124.89989 214.845713 L 124.644708 210.988536 L 124.58582 207.143138 L 124.723226 203.319331 L 125.051036 199.528894 L 125.571215 195.777717 L 126.275911 192.079538 L 127.16316 188.440248 L 128.230999 184.871624 L 129.471577 181.379554 L 130.879004 177.973854 L 132.451319 174.662374 L 134.180669 171.452968 L 136.061165 168.353486 L 138.084956 165.369818 L 140.246153 162.509815 L 142.536903 159.779366 L 144.951319 157.182396 L 147.479585 154.728722 L 150.115813 152.418342 L 152.850188 150.257145 L 155.674859 148.251021 L 158.581972 146.401932 L 161.561715 144.713803 L 164.606234 143.190562 L 167.705716 141.830245 L 170.852308 140.638741 L 174.036197 139.614086 L 177.247566 138.758244 L 180.480528 138.073178 L 183.723304 137.556925 L 186.970006 137.209485 L 190.208857 137.028894 L 193.433967 137.015154 L 196.633558 137.164337 L 199.803706 137.474482 L 202.932632 137.945587 L 206.014447 138.569802 L 209.039337 139.347126 L 212.003376 140.271671 L 214.896749 141.341473 L 217.711605 142.548681 L 220.444017 143.889369 L 223.088097 145.359611 L 225.635992 146.951555 L 228.081815 148.661275 L 230.419677 150.48092 L 232.647613 152.406564 L 234.759736 154.428392 L 236.750157 156.542478 L 238.618876 158.74097 L 240.35804 161.016018 L 241.967651 163.359768 L 243.443781 165.768295 L 244.786432 168.229821 L 245.989714 170.740421 L 247.05559 173.29028 L 247.984061 175.873508 L 248.7712 178.482255 L 249.417007 181.106705 L 249.925408 183.742933 L 250.292478 186.383087 L 250.524105 189.017352 L 250.616363 191.63984 L 250.575141 194.244661 L 250.40044 196.822001 L 250.096184 199.369896 L 249.664337 201.87657 L 249.106862 204.34006 L 248.429648 206.75055 L 247.634658 209.106077 L 246.725817 211.396828 L 245.709014 213.620839 L 244.588175 215.770258 L 243.367227 217.843122 L 242.050094 219.833543 L 240.644629 221.735631 L 239.156721 223.547425 L 237.588332 225.264997 L 235.947315 226.886385 L 234.239557 228.4057 L 232.470948 229.822943 L 230.647378 231.134187 L 228.774733 232.337469 L 226.858904 233.432789 L 224.907742 234.418185 L 222.925173 235.291693 L 220.917085 236.055276 L 218.891332 236.706972 L 216.855763 237.244818 L 214.812343 237.674702 L 212.768923 237.992698 L 210.731391 238.200769 L 208.705638 238.300879 L 206.69755 238.296954 L 204.711055 238.187029 L 202.754004 237.976994 L 200.830323 237.66685 L 198.943938 237.260521 L 197.100738 236.759972 L 195.306611 236.169127 L 193.561558 235.493876 L 191.875393 234.734218 L 190.248116 233.896043 L 188.683653 232.981313 L 187.18593 231.99788 L 185.758872 230.94967 L 184.404444 229.836683 L 183.124607 228.668734 L 181.923288 227.447786 L 180.80245 226.179727 L 179.762092 224.870446 L 178.804177 223.521906 L 177.928706 222.139997 L 177.139604 220.732569 L 176.434909 219.301586 L 175.81462 217.852937 L 175.2807 216.390546 L 174.831187 214.920305 L 174.468043 213.4481 L 174.18538 211.975895 L 173.987123 210.511542 L 173.869347 209.057004 L 173.832051 207.618169 L 173.87131 206.198964 L 173.987123 204.803313 L 174.175565 203.435144 L 174.434673 202.09642 L 174.762484 200.794991 L 175.155072 199.530857 L 175.610474 198.307946 L 176.122802 197.130182 L 176.694017 195.999529 L 177.316269 194.919912 L 177.985631 193.891332 L 178.702104 192.915751 L 179.459799 191.999058 L 180.25479 191.13929 L 181.081187 190.338411 L 181.938992 189.598383 L 182.822315 188.919205 L 183.72723 188.302842 L 184.651774 187.74733 L 185.588097 187.256595 L 186.534234 186.826712 L 187.486259 186.459642 L 188.440248 186.155386 L 189.392274 185.911982 L 190.340374 185.727465 L 191.278659 185.601837 L 192.205166 185.533134 L 193.11597 185.521357 L 194.007145 185.562579 L 194.876727 185.6568 L 195.720791 185.802057 L 196.537374 185.992462 L 197.32255 186.229978 L 198.076319 186.508715 L 198.794755 186.828675 L 199.475895 187.18593 L 200.117776 187.576555 L 200.718436 187.996624 L 201.277874 188.4481 L 201.794127 188.921168 L 202.265232 189.417792 L 202.69119 189.932082 L 203.072001 190.462076 L 203.4057 191.003847 L 203.694253 191.55347 L 203.935694 192.108982 L 204.131988 192.666457 L 204.281171 193.223932 L 204.38717 193.775518 L 204.448021 194.319253 L 204.465688 194.853172 L 204.44017 195.373351 L 204.375393 195.877827 L 204.27332 196.362673 L 204.131988 196.827889 L 203.957286 197.267588 L 203.749215 197.679805 L 203.509736 198.066504 L 203.242776 198.419834 L 202.950298 198.741756 L 202.632302 199.030308 L 202.296639 199.283527 L 201.941347 199.501413 L 201.570352 199.680041 L 201.189541 199.81941 L 200.796954 199.919519 L 200.40044 199.980371 L 200 200 " transform="matrix(1.99,0,0,1.99,0,0)"/>
<path style=" stroke:none;fill-rule:nonzero;fill:rgb(0%,0%,0%);fill-opacity:1;" d="M 487.550781 326.359375 L 547.25 326.359375 L 547.25 368.148438 L 487.550781 368.148438 Z M 487.550781 326.359375 "/>
<path style="fill:none;stroke-width:0.837521;stroke-linecap:round;stroke-linejoin:round;stroke:rgb(0%,0%,0%);stroke-opacity:1;stroke-miterlimit:10;" d="M 81.658291 54.690117 L 91.541039 54.690117 L 91.541039 61.557789 L 81.658291 61.557789 Z M 81.658291 54.690117 " transform="matrix(5.97,0,0,5.97,0,0)"/>
<path style=" stroke:none;fill-rule:nonzero;fill:rgb(0%,0%,0%);fill-opacity:1;" d="M 302.480469 296.511719 L 344.269531 296.511719 L 344.269531 338.300781 L 302.480469 338.300781 Z M 302.480469 296.511719 "/>
<path style="fill:none;stroke-width:0.837521;stroke-linecap:round;stroke-linejoin:round;stroke:rgb(0%,0%,0%);stroke-opacity:1;stroke-miterlimit:10;" d="M 50.670017 49.664992 L 57.537688 49.664992 L 57.537688 56.532663 L 50.670017 56.532663 Z M 50.670017 49.664992 " transform="matrix(5.97,0,0,5.97,0,0)"/>
<path style=" stroke:none;fill-rule:nonzero;fill:rgb(0%,0%,0%);fill-opacity:1;" d="M 398 398 L 445.761719 398 L 445.761719 427.851562 L 398 427.851562 Z M 398 398 "/>
<path style="fill:none;stroke-width:0.837521;stroke-linecap:round;stroke-linejoin:round;stroke:rgb(0%,0%,0%);stroke-opacity:1;stroke-miterlimit:10;" d="M 66.582915 66.582915 L 74.455611 66.582915 L 74.455611 71.440536 L 66.582915 71.440536 Z M 66.582915 66.582915 " transform="matrix(5.97,0,0,5.97,0,0)"/>
<path style=" stroke:none;fill-rule:nonzero;fill:rgb(0%,0%,0%);fill-opacity:1;" d="M 338.300781 398 L 368.152344 398 L 368.152344 457.699219 L 338.300781 457.699219 Z M 338.300781 398 "/>
<path style="fill:none;stroke-width:0.837521;stroke-linecap:round;stroke-linejoin:round;stroke:rgb(0%,0%,0%);stroke-opacity:1;stroke-miterlimit:10;" d="M 56.700168 66.582915 L 61.557789 66.582915 L 61.557789 76.465662 L 56.700168 76.465662 Z M 56.700168 66.582915 " transform="matrix(5.97,0,0,5.97,0,0)"/>
<path style="fill:none;stroke-width:0.837521;stroke-linecap:round;stroke-linejoin:round;stroke:rgb(0%,0%,0%);stroke-opacity:1;stroke-miterlimit:10;" d="M 46.649916 46.649916 L 86.515913 46.649916 L 86.515913 86.515913 L 46.649916 86.515913 Z M 46.649916 46.649916 " transform="matrix(5.97,0,0,5.97,0,0)"/>
<path style=" stroke:none;fill-rule:nonzero;fill:rgb(0%,0%,0%);fill-opacity:1;" d="M 557.734375 404.964844 L 573.65625 404.964844 L 573.65625 524.363281 L 557.734375 524.363281 Z M 557.734375 404.964844 "/>
<path style="fill:none;stroke-width:0.502513;stroke-linecap:round;stroke-linejoin:round;stroke:rgb(0%,0%,0%);stroke-opacity:1;stroke-miterlimit:10;" d="M 280.150754 203.266332 L 287.688442 203.266332 L 287.688442 263.065327 L 280.150754 263.065327 Z M 280.150754 203.266332 " transform="matrix(1.99,0,0,1.99,0,0)"/>
<path style="fill:none;stroke-width:0.502513;stroke-linecap:round;stroke-linejoin:round;stroke:rgb(0%,0%,0%);stroke-opacity:1;stroke-miterlimit:10;" d="M 316.331658 207.286432 C 316.331658 203.401774 313.069253 200.251256 309.045226 200.251256 C 305.0212 200.251256 301.758794 203.401774 301.758794 207.286432 C 301.758794 211.17109 305.0212 214.321608 309.045226 214.321608 C 313.069253 214.321608 316.331658 211.17109 316.331658 207.286432 " transform="matrix(1.99,0,0,1.99,0,0)"/>
<path style="fill:none;stroke-width:0.502513;stroke-linecap:round;stroke-linejoin:round;stroke:rgb(0%,0%,0%);stroke-opacity:1;stroke-miterlimit:10;" d="M 308.79397 214.824121 L 309.296482 214.824121 L 309.296482 219.346734 L 308.79397 219.346734 Z M 308.79397 214.824121 " transform="matrix(1.99,0,0,1.99,0,0)"/>
<path style="fill:none;stroke-width:0.502513;stroke-linecap:round;stroke-linejoin:round;stroke:rgb(0%,0%,0%);stroke-opacity:1;stroke-miterlimit:10;" d="M 0.0549845 -0.157336 L 0.558003 -0.157044 L 0.558344 9.390104 L 0.0553257 9.389812 Z M 0.0549845 -0.157336 " transform="matrix(1.723391,-0.995,0.995,1.723391,599.389914,438.814142)"/>
<path style="fill:none;stroke-width:0.502513;stroke-linecap:round;stroke-linejoin:round;stroke:rgb(0%,0%,0%);stroke-opacity:1;stroke-miterlimit:10;" d="M 0.218475 0.227297 L 0.720988 0.227297 L 0.720988 9.272523 L 0.218475 9.272523 Z M 0.218475 0.227297 " transform="matrix(0.000000000000000122,-1.99,1.99,0.000000000000000122,611.063305,456.048047)"/>
<path style="fill:none;stroke-width:0.502513;stroke-linecap:round;stroke-linejoin:round;stroke:rgb(0%,0%,0%);stroke-opacity:1;stroke-miterlimit:10;" d="M 308.79397 229.396985 L 309.296482 229.396985 L 309.296482 248.492462 L 308.79397 248.492462 Z M 308.79397 229.396985 " transform="matrix(1.99,0,0,1.99,0,0)"/>
<path style="fill:none;stroke-width:0.502513;stroke-linecap:round;stroke-linejoin:round;stroke:rgb(0%,0%,0%);stroke-opacity:1;stroke-miterlimit:10;" d="M 0.0236741 -0.174824 L 0.526692 -0.175116 L 0.526302 19.422198 L 0.0232838 19.42249 Z M 0.0236741 -0.174824 " transform="matrix(1.723391,0.995,-0.995,1.723391,613.453219,495.848047)"/>
<path style="fill:none;stroke-width:0.502513;stroke-linecap:round;stroke-linejoin:round;stroke:rgb(0%,0%,0%);stroke-opacity:1;stroke-miterlimit:10;" d="M 0.162875 -0.173016 L 0.665893 -0.172724 L 0.666284 19.42459 L 0.163265 19.424298 Z M 0.162875 -0.173016 " transform="matrix(1.723391,-0.995,0.995,1.723391,615.176609,496.843047)"/>
<path style="fill:none;stroke-width:0.502513;stroke-linecap:round;stroke-linejoin:round;stroke:rgb(0%,0%,0%);stroke-opacity:1;stroke-miterlimit:10;" d="M 97.738693 136.683417 C 97.738693 132.659391 94.476288 129.396985 90.452261 129.396985 C 86.428235 129.396985 83.165829 132.659391 83.165829 136.683417 C 83.165829 140.707443 86.428235 143.969849 90.452261 143.969849 C 94.476288 143.969849 97.738693 140.707443 97.738693 136.683417 " transform="matrix(1.99,0,0,1.99,0,0)"/>
<path style="fill:none;stroke-width:0.502513;stroke-linecap:round;stroke-linejoin:round;stroke:rgb(0%,0%,0%);stroke-opacity:1;stroke-miterlimit:10;" d="M 90.201005 144.472362 L 90.703518 144.472362 L 90.703518 148.994975 L 90.201005 148.994975 Z M 90.201005 144.472362 " transform="matrix(1.99,0,0,1.99,0,0)"/>
<path style="fill:none;stroke-width:0.502513;stroke-linecap:round;stroke-linejoin:round;stroke:rgb(0%,0%,0%);stroke-opacity:1;stroke-miterlimit:10;" d="M 0.0453926 -0.00289708 L 0.548411 -0.00260509 L 0.548752 9.544543 L 0.0457337 9.544251 Z M 0.0453926 -0.00289708 " transform="matrix(1.723391,-0.995,0.995,1.723391,165.409028,305.503283)"/>
<path style="fill:none;stroke-width:0.502513;stroke-linecap:round;stroke-linejoin:round;stroke:rgb(0%,0%,0%);stroke-opacity:1;stroke-miterlimit:10;" d="M -0.0639048 0.0413469 L 0.43789 0.0407207 L 0.437278 14.613685 L -0.0645171 14.614311 Z M -0.0639048 0.0413469 " transform="matrix(1.609944,1.169693,-1.169693,1.609944,194.627809,297.418339)"/>
<path style="fill:none;stroke-width:0.502513;stroke-linecap:round;stroke-linejoin:round;stroke:rgb(0%,0%,0%);stroke-opacity:1;stroke-miterlimit:10;" d="M 90.201005 162.060302 L 90.703518 162.060302 L 90.703518 181.658291 L 90.201005 181.658291 Z M 90.201005 162.060302 " transform="matrix(1.99,0,0,1.99,0,0)"/>
<path style="fill:none;stroke-width:0.502513;stroke-linecap:round;stroke-linejoin:round;stroke:rgb(0%,0%,0%);stroke-opacity:1;stroke-miterlimit:10;" d="M 0.200468 -0.0194558 L 0.703487 -0.0197478 L 0.703096 19.577566 L 0.200078 19.577858 Z M 0.200468 -0.0194558 " transform="matrix(1.723391,0.995,-0.995,1.723391,179.1,362.537189)"/>
<path style="fill:none;stroke-width:0.502513;stroke-linecap:round;stroke-linejoin:round;stroke:rgb(0%,0%,0%);stroke-opacity:1;stroke-miterlimit:10;" d="M -0.16197 -0.0169937 L 0.341048 -0.0167018 L 0.341438 19.580612 L -0.16158 19.58032 Z M -0.16197 -0.0169937 " transform="matrix(1.723391,-0.995,0.995,1.723391,180.823391,363.532189)"/>
<path style=" stroke:none;fill-rule:nonzero;fill:rgb(0%,0%,0%);fill-opacity:1;" d="M 222.347656 268.109375 L 238.269531 268.109375 L 238.269531 387.507812 L 222.347656 387.507812 Z M 222.347656 268.109375 "/>
<path style="fill:none;stroke-width:0.502513;stroke-linecap:round;stroke-linejoin:round;stroke:rgb(0%,0%,0%);stroke-opacity:1;stroke-miterlimit:10;" d="M 111.809045 134.924623 L 119.346734 134.924623 L 119.346734 194.221106 L 111.809045 194.221106 Z M 111.809045 134.924623 " transform="matrix(1.99,0,0,1.99,0,0)"/>
<path style=" stroke:none;fill-rule:nonzero;fill:rgb(100%,100%,100%);fill-opacity:1;" d="M 212.417969 141.015625 L 222.367188 158.25 C 231.886719 152.753906 235.148438 140.585938 229.652344 131.066406 C 224.15625 121.546875 211.984375 118.289062 202.46875 123.78125 C 192.949219 129.277344 189.6875 141.449219 195.183594 150.964844 C 200.679688 160.484375 212.847656 163.746094 222.367188 158.25 Z M 212.417969 141.015625 "/>
<path style="fill:none;stroke-width:0.502513;stroke-linecap:round;stroke-linejoin:round;stroke:rgb(0%,0%,0%);stroke-opacity:1;stroke-miterlimit:10;" d="M 19.42404 12.341815 C 19.425251 6.929855 15.038129 2.542864 9.625188 2.543353 C 4.213228 2.542142 -0.173763 6.929264 -0.173274 12.342205 C -0.173504 17.752465 4.212637 22.141156 9.625578 22.140667 C 15.037537 22.141878 19.42551 17.753056 19.42404 12.341815 " transform="matrix(0.995,1.723391,-1.723391,0.995,223.845191,111.44)"/>
<path style=" stroke:none;fill-rule:nonzero;fill:rgb(100%,100%,100%);fill-opacity:1;" d="M 219.703125 113.832031 L 236.617188 143.128906 L 202.148438 163.027344 L 185.234375 133.730469 Z M 219.703125 113.832031 "/>
<path style="fill:none;stroke-width:0.502513;stroke-linecap:round;stroke-linejoin:round;stroke:rgb(100%,100%,100%);stroke-opacity:1;stroke-miterlimit:10;" d="M -0.173469 2.543548 L 16.409135 2.543369 L 16.409525 22.140683 L -0.173079 22.140862 Z M -0.173469 2.543548 " transform="matrix(0.995,1.723391,-1.723391,0.995,223.845191,111.44)"/>
<path style=" stroke:none;fill-rule:nonzero;fill:rgb(100%,100%,100%);fill-opacity:1;" d="M 204.058594 122.863281 L 251.421875 159.207031 L 250.210938 160.785156 L 202.847656 124.441406 Z M 204.058594 122.863281 "/>
<path style="fill:none;stroke-width:0.502513;stroke-linecap:round;stroke-linejoin:round;stroke:rgb(0%,0%,0%);stroke-opacity:1;stroke-miterlimit:10;" d="M 0.220966 -0.18181 L 29.367277 -0.181984 L 29.366915 0.320563 L 0.220603 0.320737 Z M 0.220966 -0.18181 " transform="matrix(1.578773,1.211435,-1.211435,1.578773,204.059801,122.8631)"/>
<path style=" stroke:none;fill-rule:nonzero;fill:rgb(100%,100%,100%);fill-opacity:1;" d="M 202.847656 124.441406 L 210.640625 183.628906 L 208.667969 183.886719 L 200.875 124.699219 Z M 202.847656 124.441406 "/>
<path style="fill:none;stroke-width:0.502513;stroke-linecap:round;stroke-linejoin:round;stroke:rgb(0%,0%,0%);stroke-opacity:1;stroke-miterlimit:10;" d="M -0.17431 0.0288881 L 29.474234 0.0298537 L 29.473378 0.53263 L -0.175165 0.531664 Z M -0.17431 0.0288881 " transform="matrix(0.259747,1.972975,-1.972975,0.259747,202.848366,124.441874)"/>
<path style=" stroke:none;fill-rule:nonzero;fill:rgb(0%,0%,0%);fill-opacity:1;" d="M 213.460938 142.824219 L 214.953125 145.410156 C 218.402344 143.421875 215.417969 138.25 211.96875 140.238281 C 208.523438 142.230469 211.507812 147.398438 214.953125 145.410156 Z M 213.460938 142.824219 "/>
<path style="fill:none;stroke-width:0.502513;stroke-linecap:round;stroke-linejoin:round;stroke:rgb(0%,0%,0%);stroke-opacity:1;stroke-miterlimit:10;" d="M 11.887265 12.342342 C 11.88669 10.666988 9.373299 10.666509 9.373874 12.341864 C 9.374449 14.017219 11.88614 14.016716 11.887265 12.342342 " transform="matrix(0.995,1.723391,-1.723391,0.995,223.845191,111.44)"/>
<path style=" stroke:none;fill-rule:nonzero;fill:rgb(100%,100%,100%);fill-opacity:1;" d="M 331.816406 595.285156 L 341.769531 578.050781 C 332.25 572.554688 320.078125 575.816406 314.582031 585.332031 C 309.089844 594.851562 312.347656 607.023438 321.867188 612.519531 C 331.386719 618.011719 343.554688 614.75 349.050781 605.234375 C 354.546875 595.714844 351.285156 583.546875 341.769531 578.050781 Z M 331.816406 595.285156 "/>
<path style="fill:none;stroke-width:0.502513;stroke-linecap:round;stroke-linejoin:round;stroke:rgb(0%,0%,0%);stroke-opacity:1;stroke-miterlimit:10;" d="M 19.602985 11.972873 C 19.603474 6.559932 15.216483 2.17281 9.804523 2.174021 C 4.391582 2.173532 0.00446021 6.560523 0.00567133 11.972483 C 0.00420103 17.383724 4.391192 21.770846 9.804133 21.771335 C 15.216093 21.770124 19.603215 17.383132 19.602985 11.972873 " transform="matrix(0.995,-1.723391,1.723391,0.995,300.49,600.175279)"/>
<path style=" stroke:none;fill-rule:nonzero;fill:rgb(100%,100%,100%);fill-opacity:1;" d="M 304.632812 602.566406 L 321.546875 573.269531 L 356.015625 593.167969 L 339.101562 622.464844 Z M 304.632812 602.566406 "/>
<path style="fill:none;stroke-width:0.502513;stroke-linecap:round;stroke-linejoin:round;stroke:rgb(100%,100%,100%);stroke-opacity:1;stroke-miterlimit:10;" d="M 0.00586647 2.173826 L 16.588471 2.174005 L 16.58808 21.771319 L 0.0054762 21.77114 Z M 0.00586647 2.173826 " transform="matrix(0.995,-1.723391,1.723391,0.995,300.49,600.175279)"/>
<path style=" stroke:none;fill-rule:nonzero;fill:rgb(100%,100%,100%);fill-opacity:1;" d="M 320.273438 611.597656 L 328.066406 552.410156 L 330.039062 552.667969 L 322.246094 611.855469 Z M 320.273438 611.597656 "/>
<path style="fill:none;stroke-width:0.502513;stroke-linecap:round;stroke-linejoin:round;stroke:rgb(0%,0%,0%);stroke-opacity:1;stroke-miterlimit:10;" d="M 0.112645 -0.0494778 L 29.258412 -0.0495876 L 29.259268 0.453189 L 0.113501 0.453299 Z M 0.112645 -0.0494778 " transform="matrix(0.259747,-1.972975,1.972975,0.259747,320.27539,611.598379)"/>
<path style=" stroke:none;fill-rule:nonzero;fill:rgb(100%,100%,100%);fill-opacity:1;" d="M 322.25 611.859375 L 369.613281 575.515625 L 370.824219 577.09375 L 323.460938 613.4375 Z M 322.25 611.859375 "/>
<path style="fill:none;stroke-width:0.502513;stroke-linecap:round;stroke-linejoin:round;stroke:rgb(0%,0%,0%);stroke-opacity:1;stroke-miterlimit:10;" d="M 0.126319 -0.179395 L 29.27263 -0.179221 L 29.272993 0.323326 L 0.126681 0.323152 Z M 0.126319 -0.179395 " transform="matrix(1.578773,-1.211435,1.211435,1.578773,322.248366,611.858126)"/>
<path style=" stroke:none;fill-rule:nonzero;fill:rgb(0%,0%,0%);fill-opacity:1;" d="M 332.863281 593.476562 L 334.355469 590.890625 C 330.90625 588.898438 327.921875 594.070312 331.371094 596.058594 C 334.816406 598.050781 337.800781 592.878906 334.355469 590.890625 Z M 332.863281 593.476562 "/>
<path style="fill:none;stroke-width:0.502513;stroke-linecap:round;stroke-linejoin:round;stroke:rgb(0%,0%,0%);stroke-opacity:1;stroke-miterlimit:10;" d="M 12.066211 11.972345 C 12.065086 10.297972 9.553394 10.297469 9.552819 11.972824 C 9.552244 13.648178 12.065636 13.6477 12.066211 11.972345 " transform="matrix(0.995,-1.723391,1.723391,0.995,300.49,600.175279)"/>
<path style=" stroke:none;fill-rule:nonzero;fill:rgb(100%,100%,100%);fill-opacity:1;" d="M 525.632812 573.632812 L 508.398438 563.683594 C 502.90625 573.199219 506.164062 585.371094 515.683594 590.867188 C 525.203125 596.363281 537.371094 593.101562 542.867188 583.582031 C 548.363281 574.0625 545.101562 561.894531 535.582031 556.398438 C 526.066406 550.902344 513.894531 554.164062 508.398438 563.683594 Z M 525.632812 573.632812 "/>
<path style="fill:none;stroke-width:0.502513;stroke-linecap:round;stroke-linejoin:round;stroke:rgb(0%,0%,0%);stroke-opacity:1;stroke-miterlimit:10;" d="M 19.585206 12.081055 C 19.585695 6.668114 15.198704 2.280992 9.786745 2.282203 C 4.373804 2.281714 -0.0133187 6.668705 -0.0121076 12.080665 C -0.0135779 17.491906 4.373413 21.879028 9.786354 21.879517 C 15.198314 21.878306 19.585436 17.491314 19.585206 12.081055 " transform="matrix(-1.723391,-0.995,0.995,-1.723391,530.525279,604.96)"/>
<path style=" stroke:none;fill-rule:nonzero;fill:rgb(100%,100%,100%);fill-opacity:1;" d="M 532.917969 600.816406 L 503.621094 583.902344 L 523.519531 549.433594 L 552.816406 566.347656 Z M 532.917969 600.816406 "/>
<path style="fill:none;stroke-width:0.502513;stroke-linecap:round;stroke-linejoin:round;stroke:rgb(100%,100%,100%);stroke-opacity:1;stroke-miterlimit:10;" d="M -0.0119125 2.282008 L 16.570692 2.282187 L 16.570301 21.879501 L -0.0123027 21.879322 Z M -0.0119125 2.282008 " transform="matrix(-1.723391,-0.995,0.995,-1.723391,530.525279,604.96)"/>
<path style=" stroke:none;fill-rule:nonzero;fill:rgb(100%,100%,100%);fill-opacity:1;" d="M 541.949219 585.175781 L 482.761719 577.382812 L 483.019531 575.410156 L 542.207031 583.203125 Z M 541.949219 585.175781 "/>
<path style="fill:none;stroke-width:0.502513;stroke-linecap:round;stroke-linejoin:round;stroke:rgb(0%,0%,0%);stroke-opacity:1;stroke-miterlimit:10;" d="M -0.224395 0.16358 L 29.424149 0.162614 L 29.425005 0.665391 L -0.223539 0.666356 Z M -0.224395 0.16358 " transform="matrix(-1.972975,-0.259747,0.259747,-1.972975,541.948379,585.17461)"/>
<path style=" stroke:none;fill-rule:nonzero;fill:rgb(100%,100%,100%);fill-opacity:1;" d="M 542.207031 583.203125 L 505.863281 535.839844 L 507.441406 534.628906 L 543.785156 581.992188 Z M 542.207031 583.203125 "/>
<path style="fill:none;stroke-width:0.502513;stroke-linecap:round;stroke-linejoin:round;stroke:rgb(0%,0%,0%);stroke-opacity:1;stroke-miterlimit:10;" d="M 0.146891 0.149133 L 29.293202 0.149307 L 29.293564 0.651854 L 0.147253 0.65168 Z M 0.146891 0.149133 " transform="matrix(-1.211435,-1.578773,1.578773,-1.211435,542.208126,583.201634)"/>
<path style=" stroke:none;fill-rule:nonzero;fill:rgb(0%,0%,0%);fill-opacity:1;" d="M 523.824219 572.589844 L 521.238281 571.09375 C 519.25 574.542969 524.421875 577.527344 526.410156 574.082031 C 528.398438 570.632812 523.230469 567.648438 521.238281 571.09375 Z M 523.824219 572.589844 "/>
<path style="fill:none;stroke-width:0.502513;stroke-linecap:round;stroke-linejoin:round;stroke:rgb(0%,0%,0%);stroke-opacity:1;stroke-miterlimit:10;" d="M 12.048432 12.080527 C 12.047307 10.406154 9.535615 10.405651 9.53504 12.081006 C 9.534465 13.756361 12.047857 13.755882 12.048432 12.080527 " transform="matrix(-1.723391,-0.995,0.995,-1.723391,530.525279,604.96)"/>
<path style=" stroke:none;fill-rule:nonzero;fill:rgb(0%,0%,0%);fill-opacity:1;" d="M 141.289062 161.191406 L 161.191406 161.191406 C 161.191406 150.199219 152.28125 141.289062 141.289062 141.289062 C 130.300781 141.289062 121.390625 150.199219 121.390625 161.191406 C 121.390625 172.179688 130.300781 181.089844 141.289062 181.089844 C 152.28125 181.089844 161.191406 172.179688 161.191406 161.191406 Z M 141.289062 161.191406 "/>
<path style="fill:none;stroke-width:0.502513;stroke-linecap:round;stroke-linejoin:round;stroke:rgb(0%,0%,0%);stroke-opacity:1;stroke-miterlimit:10;" d="M 80.653266 80.904523 C 80.653266 75.492698 76.266096 71.105528 70.854271 71.105528 C 65.442447 71.105528 61.055276 75.492698 61.055276 80.904523 C 61.055276 86.316347 65.442447 90.703518 70.854271 90.703518 C 76.266096 90.703518 80.653266 86.316347 80.653266 80.904523 " transform="matrix(1.99,0,0,1.99,0,0)"/>
<path style=" stroke:none;fill-rule:nonzero;fill:rgb(100%,100%,100%);fill-opacity:1;" d="M 141.289062 161.191406 L 155.21875 161.191406 C 155.21875 153.496094 148.984375 147.261719 141.289062 147.261719 C 133.597656 147.261719 127.359375 153.496094 127.359375 161.191406 C 127.359375 168.882812 133.597656 175.121094 141.289062 175.121094 C 148.984375 175.121094 155.21875 168.882812 155.21875 161.191406 Z M 141.289062 161.191406 "/>
<path style="fill:none;stroke-width:0.502513;stroke-linecap:round;stroke-linejoin:round;stroke:rgb(0%,0%,0%);stroke-opacity:1;stroke-miterlimit:10;" d="M 77.638191 80.904523 C 77.638191 77.157271 74.601523 74.120603 70.854271 74.120603 C 67.107019 74.120603 64.070352 77.157271 64.070352 80.904523 C 64.070352 84.651774 67.107019 87.688442 70.854271 87.688442 C 74.601523 87.688442 77.638191 84.651774 77.638191 80.904523 " transform="matrix(1.99,0,0,1.99,0,0)"/>
<path style=" stroke:none;fill-rule:nonzero;fill:rgb(0%,0%,0%);fill-opacity:1;" d="M 39.800781 398 L 59.699219 398 C 59.699219 387.007812 50.789062 378.101562 39.800781 378.101562 C 28.808594 378.101562 19.898438 387.007812 19.898438 398 C 19.898438 408.992188 28.808594 417.898438 39.800781 417.898438 C 50.789062 417.898438 59.699219 408.992188 59.699219 398 Z M 39.800781 398 "/>
<path style="fill:none;stroke-width:0.502513;stroke-linecap:round;stroke-linejoin:round;stroke:rgb(0%,0%,0%);stroke-opacity:1;stroke-miterlimit:10;" d="M 29.396985 199.748744 C 29.396985 194.476288 25.009815 190.201005 19.59799 190.201005 C 14.186165 190.201005 9.798995 194.476288 9.798995 199.748744 C 9.798995 205.0212 14.186165 209.296482 19.59799 209.296482 C 25.009815 209.296482 29.396985 205.0212 29.396985 199.748744 " transform="matrix(1.99,0,0,1.99,0,0)"/>
<path style=" stroke:none;fill-rule:nonzero;fill:rgb(100%,100%,100%);fill-opacity:1;" d="M 39.800781 398 L 53.730469 398 C 53.730469 390.308594 47.492188 384.070312 39.800781 384.070312 C 32.105469 384.070312 25.871094 390.308594 25.871094 398 C 25.871094 405.691406 32.105469 411.929688 39.800781 411.929688 C 47.492188 411.929688 53.730469 405.691406 53.730469 398 Z M 39.800781 398 "/>
<path style="fill:none;stroke-width:0.502513;stroke-linecap:round;stroke-linejoin:round;stroke:rgb(0%,0%,0%);stroke-opacity:1;stroke-miterlimit:10;" d="M 26.38191 199.748744 C 26.38191 196.140861 23.345242 193.21608 19.59799 193.21608 C 15.850738 193.21608 12.81407 196.140861 12.81407 199.748744 C 12.81407 203.356627 15.850738 206.281407 19.59799 206.281407 C 23.345242 206.281407 26.38191 203.356627 26.38191 199.748744 " transform="matrix(1.99,0,0,1.99,0,0)"/>
<path style=" stroke:none;fill-rule:nonzero;fill:rgb(0%,0%,0%);fill-opacity:1;" d="M 59.699219 754.210938 L 79.601562 754.210938 C 79.601562 743.21875 70.691406 734.308594 59.699219 734.308594 C 48.710938 734.308594 39.800781 743.21875 39.800781 754.210938 C 39.800781 765.199219 48.710938 774.109375 59.699219 774.109375 C 70.691406 774.109375 79.601562 765.199219 79.601562 754.210938 Z M 59.699219 754.210938 "/>
<path style="fill:none;stroke-width:0.502513;stroke-linecap:round;stroke-linejoin:round;stroke:rgb(0%,0%,0%);stroke-opacity:1;stroke-miterlimit:10;" d="M 39.447236 378.894472 C 39.447236 373.482648 35.060066 369.095477 29.648241 369.095477 C 24.236416 369.095477 19.849246 373.482648 19.849246 378.894472 C 19.849246 384.306297 24.236416 388.693467 29.648241 388.693467 C 35.060066 388.693467 39.447236 384.306297 39.447236 378.894472 " transform="matrix(1.99,0,0,1.99,0,0)"/>
<path style=" stroke:none;fill-rule:nonzero;fill:rgb(100%,100%,100%);fill-opacity:1;" d="M 59.699219 754.210938 L 73.628906 754.210938 C 73.628906 746.515625 67.394531 740.28125 59.699219 740.28125 C 52.007812 740.28125 45.769531 746.515625 45.769531 754.210938 C 45.769531 761.902344 52.007812 768.140625 59.699219 768.140625 C 67.394531 768.140625 73.628906 761.902344 73.628906 754.210938 Z M 59.699219 754.210938 "/>
<path style="fill:none;stroke-width:0.502513;stroke-linecap:round;stroke-linejoin:round;stroke:rgb(0%,0%,0%);stroke-opacity:1;stroke-miterlimit:10;" d="M 36.432161 378.894472 C 36.432161 375.14722 33.395493 372.110553 29.648241 372.110553 C 25.900989 372.110553 22.864322 375.14722 22.864322 378.894472 C 22.864322 382.641724 25.900989 385.678392 29.648241 385.678392 C 33.395493 385.678392 36.432161 382.641724 36.432161 378.894472 " transform="matrix(1.99,0,0,1.99,0,0)"/>
<path style=" stroke:none;fill-rule:nonzero;fill:rgb(0%,0%,0%);fill-opacity:1;" d="M 694.511719 81.589844 L 714.410156 81.589844 C 714.410156 70.597656 705.5 61.691406 694.511719 61.691406 C 683.519531 61.691406 674.609375 70.597656 674.609375 81.589844 C 674.609375 92.582031 683.519531 101.488281 694.511719 101.488281 C 705.5 101.488281 714.410156 92.582031 714.410156 81.589844 Z M 694.511719 81.589844 "/>
<path style="fill:none;stroke-width:0.502513;stroke-linecap:round;stroke-linejoin:round;stroke:rgb(0%,0%,0%);stroke-opacity:1;stroke-miterlimit:10;" d="M 358.542714 40.703518 C 358.542714 35.291693 354.155543 30.904523 348.743719 30.904523 C 343.331894 30.904523 338.944724 35.291693 338.944724 40.703518 C 338.944724 46.115342 343.331894 50.502513 348.743719 50.502513 C 354.155543 50.502513 358.542714 46.115342 358.542714 40.703518 " transform="matrix(1.99,0,0,1.99,0,0)"/>
<path style=" stroke:none;fill-rule:nonzero;fill:rgb(100%,100%,100%);fill-opacity:1;" d="M 694.511719 81.589844 L 708.441406 81.589844 C 708.441406 73.898438 702.203125 67.660156 694.511719 67.660156 C 686.816406 67.660156 680.578125 73.898438 680.578125 81.589844 C 680.578125 89.285156 686.816406 95.519531 694.511719 95.519531 C 702.203125 95.519531 708.441406 89.285156 708.441406 81.589844 Z M 694.511719 81.589844 "/>
<path style="fill:none;stroke-width:0.502513;stroke-linecap:round;stroke-linejoin:round;stroke:rgb(0%,0%,0%);stroke-opacity:1;stroke-miterlimit:10;" d="M 355.527638 40.703518 C 355.527638 36.956266 352.49097 33.919598 348.743719 33.919598 C 344.996467 33.919598 341.959799 36.956266 341.959799 40.703518 C 341.959799 44.450769 344.996467 47.487437 348.743719 47.487437 C 352.49097 47.487437 355.527638 44.450769 355.527638 40.703518 " transform="matrix(1.99,0,0,1.99,0,0)"/>
<path style=" stroke:none;fill-rule:nonzero;fill:rgb(0%,0%,0%);fill-opacity:1;" d="M 766.148438 398 L 786.050781 398 C 786.050781 387.007812 777.140625 378.101562 766.148438 378.101562 C 755.160156 378.101562 746.25 387.007812 746.25 398 C 746.25 408.992188 755.160156 417.898438 766.148438 417.898438 C 777.140625 417.898438 786.050781 408.992188 786.050781 398 Z M 766.148438 398 "/>
<path style="fill:none;stroke-width:0.502513;stroke-linecap:round;stroke-linejoin:round;stroke:rgb(0%,0%,0%);stroke-opacity:1;stroke-miterlimit:10;" d="M 394.723618 199.748744 C 394.723618 194.476288 390.336448 190.201005 384.924623 190.201005 C 379.512798 190.201005 375.125628 194.476288 375.125628 199.748744 C 375.125628 205.0212 379.512798 209.296482 384.924623 209.296482 C 390.336448 209.296482 394.723618 205.0212 394.723618 199.748744 " transform="matrix(1.99,0,0,1.99,0,0)"/>
<path style=" stroke:none;fill-rule:nonzero;fill:rgb(100%,100%,100%);fill-opacity:1;" d="M 766.148438 398 L 780.078125 398 C 780.078125 390.308594 773.84375 384.070312 766.148438 384.070312 C 758.457031 384.070312 752.21875 390.308594 752.21875 398 C 752.21875 405.691406 758.457031 411.929688 766.148438 411.929688 C 773.84375 411.929688 780.078125 405.691406 780.078125 398 Z M 766.148438 398 "/>
<path style="fill:none;stroke-width:0.502513;stroke-linecap:round;stroke-linejoin:round;stroke:rgb(0%,0%,0%);stroke-opacity:1;stroke-miterlimit:10;" d="M 391.708543 199.748744 C 391.708543 196.140861 388.671875 193.21608 384.924623 193.21608 C 381.177371 193.21608 378.140704 196.140861 378.140704 199.748744 C 378.140704 203.356627 381.177371 206.281407 384.924623 206.281407 C 388.671875 206.281407 391.708543 203.356627 391.708543 199.748744 " transform="matrix(1.99,0,0,1.99,0,0)"/>
<path style=" stroke:none;fill-rule:nonzero;fill:rgb(0%,0%,0%);fill-opacity:1;" d="M 575.109375 694.511719 L 595.011719 694.511719 C 595.011719 683.519531 586.101562 674.609375 575.109375 674.609375 C 564.121094 674.609375 555.210938 683.519531 555.210938 694.511719 C 555.210938 705.5 564.121094 714.410156 575.109375 714.410156 C 586.101562 714.410156 595.011719 705.5 595.011719 694.511719 Z M 575.109375 694.511719 "/>
<path style="fill:none;stroke-width:0.502513;stroke-linecap:round;stroke-linejoin:round;stroke:rgb(0%,0%,0%);stroke-opacity:1;stroke-miterlimit:10;" d="M 298.743719 348.743719 C 298.743719 343.331894 294.356548 338.944724 288.944724 338.944724 C 283.532899 338.944724 279.145729 343.331894 279.145729 348.743719 C 279.145729 354.155543 283.532899 358.542714 288.944724 358.542714 C 294.356548 358.542714 298.743719 354.155543 298.743719 348.743719 " transform="matrix(1.99,0,0,1.99,0,0)"/>
<path style=" stroke:none;fill-rule:nonzero;fill:rgb(100%,100%,100%);fill-opacity:1;" d="M 575.109375 694.511719 L 589.039062 694.511719 C 589.039062 686.816406 582.804688 680.578125 575.109375 680.578125 C 567.417969 680.578125 561.179688 686.816406 561.179688 694.511719 C 561.179688 702.203125 567.417969 708.441406 575.109375 708.441406 C 582.804688 708.441406 589.039062 702.203125 589.039062 694.511719 Z M 575.109375 694.511719 "/>
<path style="fill:none;stroke-width:0.502513;stroke-linecap:round;stroke-linejoin:round;stroke:rgb(0%,0%,0%);stroke-opacity:1;stroke-miterlimit:10;" d="M 295.728643 348.743719 C 295.728643 344.996467 292.691976 341.959799 288.944724 341.959799 C 285.197472 341.959799 282.160804 344.996467 282.160804 348.743719 C 282.160804 352.49097 285.197472 355.527638 288.944724 355.527638 C 292.691976 355.527638 295.728643 352.49097 295.728643 348.743719 " transform="matrix(1.99,0,0,1.99,0,0)"/>
<path style="fill:none;stroke-width:4.522613;stroke-linecap:round;stroke-linejoin:round;stroke:rgb(0%,0%,0%);stroke-opacity:0.3;stroke-miterlimit:10;" d="M 70.100503 100.251256 L 300.251256 180.150754 " transform="matrix(1.99,0,0,1.99,0,0)"/>
<path style="fill:none;stroke-width:4.522613;stroke-linecap:round;stroke-linejoin:round;stroke:rgb(0%,0%,0%);stroke-opacity:0.3;stroke-miterlimit:10;" d="M 300.251256 180.150754 L 239.949749 290.201005 " transform="matrix(1.99,0,0,1.99,0,0)"/>
<path style="fill:none;stroke-width:4.522613;stroke-linecap:round;stroke-linejoin:round;stroke:rgb(0%,0%,0%);stroke-opacity:0.3;stroke-miterlimit:10;" d="M 239.949749 290.201005 L 70.100503 100.251256 " transform="matrix(1.99,0,0,1.99,0,0)"/>
</g>
</svg>
