<?xml version="1.0" encoding="UTF-8"?>
<svg xmlns="http://www.w3.org/2000/svg" xmlns:xlink="http://www.w3.org/1999/xlink" width="1234pt" height="597pt" viewBox="0 0 1234 597" version="1.1">
<defs>
<clipPath id="clip1">
  <path d="M 0 0 L 597 0 L 597 597 L 0 597 Z M 0 0 "/>
</clipPath>
<clipPath id="clip2">
  <path d="M 637 0 L 1234 0 L 1234 597 L 637 597 Z M 637 0 "/>
</clipPath>
</defs>
<g id="surface2">
<g clip-path="url(#clip1)" clip-rule="nonzero">
<path style="fill:none;stroke-width:0.502513;stroke-linecap:round;stroke-linejoin:round;stroke:rgb(0%,0%,0%);stroke-opacity:1;stroke-miterlimit:10;" d="M -50 -50 L 349.497487 -50 L 349.497487 349.497487 L -50 349.497487 Z M -50 -50 " transform="matrix(1.99,0,0,1.99,0,0)"/>
</g>
<path style=" stroke:none;fill-rule:nonzero;fill:rgb(0%,0%,0%);fill-opacity:1;" d="M 388.050781 226.859375 L 447.75 226.859375 L 447.75 268.648438 L 388.050781 268.648438 Z M 388.050781 226.859375 "/>
<path style="fill:none;stroke-width:0.837521;stroke-linecap:round;stroke-linejoin:round;stroke:rgb(0%,0%,0%);stroke-opacity:1;stroke-miterlimit:10;" d="M 65.075377 37.939698 L 74.79062 37.939698 L 74.79062 44.80737 L 65.075377 44.80737 Z M 65.075377 37.939698 " transform="matrix(5.97,0,0,5.97,0,0)"/>
<path style=" stroke:none;fill-rule:nonzero;fill:rgb(0%,0%,0%);fill-opacity:1;" d="M 202.980469 197.011719 L 244.769531 197.011719 L 244.769531 238.800781 L 202.980469 238.800781 Z M 202.980469 197.011719 "/>
<path style="fill:none;stroke-width:0.837521;stroke-linecap:round;stroke-linejoin:round;stroke:rgb(0%,0%,0%);stroke-opacity:1;stroke-miterlimit:10;" d="M 33.919598 33.082077 L 40.78727 33.082077 L 40.78727 39.782245 L 33.919598 39.782245 Z M 33.919598 33.082077 " transform="matrix(5.97,0,0,5.97,0,0)"/>
<path style=" stroke:none;fill-rule:nonzero;fill:rgb(0%,0%,0%);fill-opacity:1;" d="M 298.5 298.5 L 346.261719 298.5 L 346.261719 328.351562 L 298.5 328.351562 Z M 298.5 298.5 "/>
<path style="fill:none;stroke-width:0.837521;stroke-linecap:round;stroke-linejoin:round;stroke:rgb(0%,0%,0%);stroke-opacity:1;stroke-miterlimit:10;" d="M 50 50 L 57.872697 50 L 57.872697 54.857621 L 50 54.857621 Z M 50 50 " transform="matrix(5.97,0,0,5.97,0,0)"/>
<path style=" stroke:none;fill-rule:nonzero;fill:rgb(0%,0%,0%);fill-opacity:1;" d="M 238.800781 298.5 L 268.652344 298.5 L 268.652344 358.199219 L 238.800781 358.199219 Z M 238.800781 298.5 "/>
<path style="fill:none;stroke-width:0.837521;stroke-linecap:round;stroke-linejoin:round;stroke:rgb(0%,0%,0%);stroke-opacity:1;stroke-miterlimit:10;" d="M 39.949749 50 L 44.80737 50 L 44.80737 59.882747 L 39.949749 59.882747 Z M 39.949749 50 " transform="matrix(5.97,0,0,5.97,0,0)"/>
<path style="fill:none;stroke-width:0.837521;stroke-linecap:round;stroke-linejoin:round;stroke:rgb(0%,0%,0%);stroke-opacity:1;stroke-miterlimit:10;" d="M 30.067002 30.067002 L 69.765494 30.067002 L 69.765494 69.765494 L 30.067002 69.765494 Z M 30.067002 30.067002 " transform="matrix(5.97,0,0,5.97,0,0)"/>
<path style=" stroke:none;fill-rule:nonzero;fill:rgb(0%,0%,0%);fill-opacity:1;" d="M 458.234375 305.464844 L 474.15625 305.464844 L 474.15625 424.863281 L 458.234375 424.863281 Z M 458.234375 305.464844 "/>
<path style="fill:none;stroke-width:0.502513;stroke-linecap:round;stroke-linejoin:round;stroke:rgb(0%,0%,0%);stroke-opacity:1;stroke-miterlimit:10;" d="M 230.40201 153.517588 L 237.939698 153.517588 L 237.939698 212.81407 L 230.40201 212.81407 Z M 230.40201 153.517588 " transform="matrix(1.99,0,0,1.99,0,0)"/>
<path style="fill:none;stroke-width:0.502513;stroke-linecap:round;stroke-linejoin:round;stroke:rgb(0%,0%,0%);stroke-opacity:1;stroke-miterlimit:10;" d="M 266.080402 157.286432 C 266.080402 153.262406 262.817996 150 258.79397 150 C 254.769943 150 251.507538 153.262406 251.507538 157.286432 C 251.507538 161.310459 254.769943 164.572864 258.79397 164.572864 C 262.817996 164.572864 266.080402 161.310459 266.080402 157.286432 " transform="matrix(1.99,0,0,1.99,0,0)"/>
<path style="fill:none;stroke-width:0.502513;stroke-linecap:round;stroke-linejoin:round;stroke:rgb(0%,0%,0%);stroke-opacity:1;stroke-miterlimit:10;" d="M 258.542714 165.075377 L 259.045226 165.075377 L 259.045226 169.59799 L 258.542714 169.59799 Z M 258.542714 165.075377 " transform="matrix(1.99,0,0,1.99,0,0)"/>
<path style="fill:none;stroke-width:0.502513;stroke-linecap:round;stroke-linejoin:round;stroke:rgb(0%,0%,0%);stroke-opacity:1;stroke-miterlimit:10;" d="M -0.196671 0.0940275 L 0.306348 0.0943195 L 0.306689 9.641467 L -0.196329 9.641175 Z M -0.196671 0.0940275 " transform="matrix(1.723391,-0.995,0.995,1.723391,499.889914,339.314142)"/>
<path style="fill:none;stroke-width:0.502513;stroke-linecap:round;stroke-linejoin:round;stroke:rgb(0%,0%,0%);stroke-opacity:1;stroke-miterlimit:10;" d="M -0.0327809 -0.0239597 L 0.469732 -0.0239597 L 0.469732 9.523779 L -0.0327809 9.523779 Z M -0.0327809 -0.0239597 " transform="matrix(0.000000000000000122,-1.99,1.99,0.000000000000000122,511.563305,356.548047)"/>
<path style="fill:none;stroke-width:0.502513;stroke-linecap:round;stroke-linejoin:round;stroke:rgb(0%,0%,0%);stroke-opacity:1;stroke-miterlimit:10;" d="M 258.542714 179.145729 L 259.045226 179.145729 L 259.045226 198.743719 L 258.542714 198.743719 Z M 258.542714 179.145729 " transform="matrix(1.99,0,0,1.99,0,0)"/>
<path style="fill:none;stroke-width:0.502513;stroke-linecap:round;stroke-linejoin:round;stroke:rgb(0%,0%,0%);stroke-opacity:1;stroke-miterlimit:10;" d="M -0.227689 0.0768309 L 0.275329 0.0765389 L 0.274939 19.673853 L -0.228079 19.674145 Z M -0.227689 0.0768309 " transform="matrix(1.723391,0.995,-0.995,1.723391,513.953219,396.348047)"/>
<path style="fill:none;stroke-width:0.502513;stroke-linecap:round;stroke-linejoin:round;stroke:rgb(0%,0%,0%);stroke-opacity:1;stroke-miterlimit:10;" d="M -0.0887799 0.0783473 L 0.414238 0.0786393 L 0.414629 19.675953 L -0.0883897 19.675661 Z M -0.0887799 0.0783473 " transform="matrix(1.723391,-0.995,0.995,1.723391,515.676609,397.343047)"/>
<path style="fill:none;stroke-width:0.502513;stroke-linecap:round;stroke-linejoin:round;stroke:rgb(0%,0%,0%);stroke-opacity:1;stroke-miterlimit:10;" d="M 47.98995 86.683417 C 47.98995 82.798759 44.727544 79.648241 40.703518 79.648241 C 36.679491 79.648241 33.417085 82.798759 33.417085 86.683417 C 33.417085 90.568075 36.679491 93.718593 40.703518 93.718593 C 44.727544 93.718593 47.98995 90.568075 47.98995 86.683417 " transform="matrix(1.99,0,0,1.99,0,0)"/>
<path style="fill:none;stroke-width:0.502513;stroke-linecap:round;stroke-linejoin:round;stroke:rgb(0%,0%,0%);stroke-opacity:1;stroke-miterlimit:10;" d="M 40.452261 94.221106 L 40.954774 94.221106 L 40.954774 98.743719 L 40.452261 98.743719 Z M 40.452261 94.221106 " transform="matrix(1.99,0,0,1.99,0,0)"/>
<path style="fill:none;stroke-width:0.502513;stroke-linecap:round;stroke-linejoin:round;stroke:rgb(0%,0%,0%);stroke-opacity:1;stroke-miterlimit:10;" d="M -0.204563 0.249448 L 0.298456 0.24974 L 0.298107 9.295569 L -0.204911 9.295277 Z M -0.204563 0.249448 " transform="matrix(1.723391,-0.995,0.995,1.723391,65.909028,206.003283)"/>
<path style="fill:none;stroke-width:0.502513;stroke-linecap:round;stroke-linejoin:round;stroke:rgb(0%,0%,0%);stroke-opacity:1;stroke-miterlimit:10;" d="M 0.186897 -0.211234 L 0.688691 -0.211861 L 0.688079 14.361104 L 0.186284 14.36173 Z M 0.186897 -0.211234 " transform="matrix(1.609944,1.169693,-1.169693,1.609944,95.127809,197.918339)"/>
<path style="fill:none;stroke-width:0.502513;stroke-linecap:round;stroke-linejoin:round;stroke:rgb(0%,0%,0%);stroke-opacity:1;stroke-miterlimit:10;" d="M 40.452261 112.311558 L 40.954774 112.311558 L 40.954774 131.909548 L 40.452261 131.909548 Z M 40.452261 112.311558 " transform="matrix(1.99,0,0,1.99,0,0)"/>
<path style="fill:none;stroke-width:0.502513;stroke-linecap:round;stroke-linejoin:round;stroke:rgb(0%,0%,0%);stroke-opacity:1;stroke-miterlimit:10;" d="M -0.0508948 0.232199 L 0.452123 0.231907 L 0.452423 19.327903 L -0.0505956 19.328195 Z M -0.0508948 0.232199 " transform="matrix(1.723391,0.995,-0.995,1.723391,79.6,263.037189)"/>
<path style="fill:none;stroke-width:0.502513;stroke-linecap:round;stroke-linejoin:round;stroke:rgb(0%,0%,0%);stroke-opacity:1;stroke-miterlimit:10;" d="M 0.0893929 0.234661 L 0.592411 0.234953 L 0.592112 19.330949 L 0.0890937 19.330657 Z M 0.0893929 0.234661 " transform="matrix(1.723391,-0.995,0.995,1.723391,81.323391,264.032189)"/>
<path style=" stroke:none;fill-rule:nonzero;fill:rgb(0%,0%,0%);fill-opacity:1;" d="M 122.847656 168.609375 L 138.769531 168.609375 L 138.769531 288.007812 L 122.847656 288.007812 Z M 122.847656 168.609375 "/>
<path style="fill:none;stroke-width:0.502513;stroke-linecap:round;stroke-linejoin:round;stroke:rgb(0%,0%,0%);stroke-opacity:1;stroke-miterlimit:10;" d="M 61.557789 84.673367 L 69.095477 84.673367 L 69.095477 144.472362 L 61.557789 144.472362 Z M 61.557789 84.673367 " transform="matrix(1.99,0,0,1.99,0,0)"/>
<path style=" stroke:none;fill-rule:nonzero;fill:rgb(100%,100%,100%);fill-opacity:1;" d="M 112.917969 41.515625 L 122.867188 58.75 C 132.386719 53.253906 135.648438 41.085938 130.152344 31.566406 C 124.65625 22.046875 112.484375 18.789062 102.96875 24.28125 C 93.449219 29.777344 90.1875 41.949219 95.683594 51.464844 C 101.179688 60.984375 113.347656 64.246094 122.867188 58.75 Z M 112.917969 41.515625 "/>
<path style="fill:none;stroke-width:0.502513;stroke-linecap:round;stroke-linejoin:round;stroke:rgb(0%,0%,0%);stroke-opacity:1;stroke-miterlimit:10;" d="M 19.675695 12.090452 C 19.676906 6.678492 15.288084 2.29052 9.876843 2.29199 C 4.464883 2.290779 0.0778921 6.677901 0.078381 12.090842 C 0.0771698 17.502801 4.464292 21.889793 9.877233 21.889304 C 15.287493 21.889533 19.676184 17.503393 19.675695 12.090452 " transform="matrix(0.995,1.723391,-1.723391,0.995,124.345191,11.94)"/>
<path style=" stroke:none;fill-rule:nonzero;fill:rgb(100%,100%,100%);fill-opacity:1;" d="M 120.203125 14.332031 L 137.117188 43.628906 L 102.648438 63.527344 L 85.734375 34.230469 Z M 120.203125 14.332031 "/>
<path style="fill:none;stroke-width:0.502513;stroke-linecap:round;stroke-linejoin:round;stroke:rgb(100%,100%,100%);stroke-opacity:1;stroke-miterlimit:10;" d="M 0.0781858 2.292185 L 16.66079 2.292006 L 16.66118 21.88932 L 0.0785761 21.889499 Z M 0.0781858 2.292185 " transform="matrix(0.995,1.723391,-1.723391,0.995,124.345191,11.94)"/>
<path style=" stroke:none;fill-rule:nonzero;fill:rgb(100%,100%,100%);fill-opacity:1;" d="M 104.558594 23.363281 L 151.921875 59.707031 L 150.710938 61.285156 L 103.347656 24.941406 Z M 104.558594 23.363281 "/>
<path style="fill:none;stroke-width:0.502513;stroke-linecap:round;stroke-linejoin:round;stroke:rgb(0%,0%,0%);stroke-opacity:1;stroke-miterlimit:10;" d="M -0.0303077 0.0679066 L 29.618551 0.0680946 L 29.618188 0.570641 L -0.0306699 0.570454 Z M -0.0303077 0.0679066 " transform="matrix(1.578773,1.211435,-1.211435,1.578773,104.559801,23.3631)"/>
<path style=" stroke:none;fill-rule:nonzero;fill:rgb(100%,100%,100%);fill-opacity:1;" d="M 103.347656 24.941406 L 111.140625 84.128906 L 109.167969 84.386719 L 101.375 25.199219 Z M 103.347656 24.941406 "/>
<path style="fill:none;stroke-width:0.502513;stroke-linecap:round;stroke-linejoin:round;stroke:rgb(0%,0%,0%);stroke-opacity:1;stroke-miterlimit:10;" d="M 0.0764053 -0.221227 L 29.724949 -0.220262 L 29.724093 0.282515 L 0.0755495 0.281549 Z M 0.0764053 -0.221227 " transform="matrix(0.259747,1.972975,-1.972975,0.259747,103.348366,24.941874)"/>
<path style=" stroke:none;fill-rule:nonzero;fill:rgb(0%,0%,0%);fill-opacity:1;" d="M 113.960938 43.324219 L 115.453125 45.910156 C 118.902344 43.921875 115.917969 38.75 112.46875 40.738281 C 109.023438 42.730469 112.007812 47.898438 115.453125 45.910156 Z M 113.960938 43.324219 "/>
<path style="fill:none;stroke-width:0.502513;stroke-linecap:round;stroke-linejoin:round;stroke:rgb(0%,0%,0%);stroke-opacity:1;stroke-miterlimit:10;" d="M 12.13892 12.090979 C 12.138345 10.415624 9.624954 10.415146 9.625529 12.090501 C 9.626104 13.765856 12.137795 13.765353 12.13892 12.090979 " transform="matrix(0.995,1.723391,-1.723391,0.995,124.345191,11.94)"/>
<path style=" stroke:none;fill-rule:nonzero;fill:rgb(100%,100%,100%);fill-opacity:1;" d="M 232.316406 495.785156 L 242.269531 478.550781 C 232.75 473.054688 220.578125 476.316406 215.082031 485.832031 C 209.589844 495.351562 212.847656 507.523438 222.367188 513.019531 C 231.886719 518.511719 244.054688 515.25 249.550781 505.734375 C 255.046875 496.214844 251.785156 484.046875 242.269531 478.550781 Z M 232.316406 495.785156 "/>
<path style="fill:none;stroke-width:0.502513;stroke-linecap:round;stroke-linejoin:round;stroke:rgb(0%,0%,0%);stroke-opacity:1;stroke-miterlimit:10;" d="M 19.351622 12.224528 C 19.352111 6.811587 14.96512 2.424465 9.552179 2.423976 C 4.140219 2.425187 -0.246903 6.812178 -0.245692 12.224138 C -0.247162 17.635379 4.139829 22.022501 9.55277 22.02299 C 14.96473 22.021779 19.351852 17.634787 19.351622 12.224528 " transform="matrix(0.995,-1.723391,1.723391,0.995,200.99,500.675279)"/>
<path style=" stroke:none;fill-rule:nonzero;fill:rgb(100%,100%,100%);fill-opacity:1;" d="M 205.132812 503.066406 L 222.046875 473.769531 L 256.515625 493.667969 L 239.601562 522.964844 Z M 205.132812 503.066406 "/>
<path style="fill:none;stroke-width:0.502513;stroke-linecap:round;stroke-linejoin:round;stroke:rgb(100%,100%,100%);stroke-opacity:1;stroke-miterlimit:10;" d="M -0.246478 2.423781 L 16.336126 2.42396 L 16.335736 22.021274 L -0.246868 22.021095 Z M -0.246478 2.423781 " transform="matrix(0.995,-1.723391,1.723391,0.995,200.99,500.675279)"/>
<path style=" stroke:none;fill-rule:nonzero;fill:rgb(100%,100%,100%);fill-opacity:1;" d="M 220.773438 512.097656 L 228.566406 452.910156 L 230.539062 453.167969 L 222.746094 512.355469 Z M 220.773438 512.097656 "/>
<path style="fill:none;stroke-width:0.502513;stroke-linecap:round;stroke-linejoin:round;stroke:rgb(0%,0%,0%);stroke-opacity:1;stroke-miterlimit:10;" d="M -0.139416 0.201493 L 29.509127 0.200528 L 29.509983 0.703304 L -0.13856 0.70427 Z M -0.139416 0.201493 " transform="matrix(0.259747,-1.972975,1.972975,0.259747,220.77539,512.098379)"/>
<path style=" stroke:none;fill-rule:nonzero;fill:rgb(100%,100%,100%);fill-opacity:1;" d="M 222.75 512.359375 L 270.113281 476.015625 L 271.324219 477.59375 L 223.960938 513.9375 Z M 222.75 512.359375 "/>
<path style="fill:none;stroke-width:0.502513;stroke-linecap:round;stroke-linejoin:round;stroke:rgb(0%,0%,0%);stroke-opacity:1;stroke-miterlimit:10;" d="M -0.124955 0.0706833 L 29.523904 0.0704953 L 29.524266 0.573042 L -0.124592 0.57323 Z M -0.124955 0.0706833 " transform="matrix(1.578773,-1.211435,1.211435,1.578773,222.748366,512.358126)"/>
<path style=" stroke:none;fill-rule:nonzero;fill:rgb(0%,0%,0%);fill-opacity:1;" d="M 233.363281 493.976562 L 234.855469 491.390625 C 231.40625 489.398438 228.421875 494.570312 231.871094 496.558594 C 235.316406 498.550781 238.300781 493.378906 234.855469 491.390625 Z M 233.363281 493.976562 "/>
<path style="fill:none;stroke-width:0.502513;stroke-linecap:round;stroke-linejoin:round;stroke:rgb(0%,0%,0%);stroke-opacity:1;stroke-miterlimit:10;" d="M 11.814848 12.224 C 11.813722 10.549627 9.302031 10.549124 9.301456 12.224479 C 9.302581 13.898852 11.814273 13.899355 11.814848 12.224 " transform="matrix(0.995,-1.723391,1.723391,0.995,200.99,500.675279)"/>
<path style=" stroke:none;fill-rule:nonzero;fill:rgb(100%,100%,100%);fill-opacity:1;" d="M 426.132812 474.132812 L 408.898438 464.183594 C 403.40625 473.699219 406.664062 485.871094 416.183594 491.367188 C 425.703125 496.863281 437.871094 493.601562 443.367188 484.082031 C 448.863281 474.5625 445.601562 462.394531 436.082031 456.898438 C 426.566406 451.402344 414.394531 454.664062 408.898438 464.183594 Z M 426.132812 474.132812 "/>
<path style="fill:none;stroke-width:0.502513;stroke-linecap:round;stroke-linejoin:round;stroke:rgb(0%,0%,0%);stroke-opacity:1;stroke-miterlimit:10;" d="M 19.333843 12.33271 C 19.334332 6.919769 15.059101 2.533853 9.785909 2.532012 C 4.513698 2.53187 0.238336 6.920068 0.239548 12.332028 C 0.238077 17.743269 4.514289 22.130884 9.7865 22.131026 C 15.058711 22.131167 19.334073 17.74297 19.333843 12.33271 " transform="matrix(-1.723391,-0.995,0.995,-1.723391,431.025279,505.46)"/>
<path style=" stroke:none;fill-rule:nonzero;fill:rgb(100%,100%,100%);fill-opacity:1;" d="M 433.417969 501.316406 L 404.121094 484.402344 L 424.019531 449.933594 L 453.316406 466.847656 Z M 433.417969 501.316406 "/>
<path style="fill:none;stroke-width:0.502513;stroke-linecap:round;stroke-linejoin:round;stroke:rgb(100%,100%,100%);stroke-opacity:1;stroke-miterlimit:10;" d="M 0.238761 2.531671 L 16.318347 2.532142 L 16.317957 22.129456 L 0.238371 22.128985 Z M 0.238761 2.531671 " transform="matrix(-1.723391,-0.995,0.995,-1.723391,431.025279,505.46)"/>
<path style=" stroke:none;fill-rule:nonzero;fill:rgb(100%,100%,100%);fill-opacity:1;" d="M 442.449219 485.675781 L 383.261719 477.882812 L 383.519531 475.910156 L 442.707031 483.703125 Z M 442.449219 485.675781 "/>
<path style="fill:none;stroke-width:0.502513;stroke-linecap:round;stroke-linejoin:round;stroke:rgb(0%,0%,0%);stroke-opacity:1;stroke-miterlimit:10;" d="M 0.0257207 -0.0871349 L 29.674264 -0.0881005 L 29.67512 0.414676 L 0.0265765 0.415641 Z M 0.0257207 -0.0871349 " transform="matrix(-1.972975,-0.259747,0.259747,-1.972975,442.448379,485.67461)"/>
<path style=" stroke:none;fill-rule:nonzero;fill:rgb(100%,100%,100%);fill-opacity:1;" d="M 442.707031 483.703125 L 406.363281 436.339844 L 407.941406 435.128906 L 444.285156 482.492188 Z M 442.707031 483.703125 "/>
<path style="fill:none;stroke-width:0.502513;stroke-linecap:round;stroke-linejoin:round;stroke:rgb(0%,0%,0%);stroke-opacity:1;stroke-miterlimit:10;" d="M -0.104383 -0.100583 L 29.544476 -0.100771 L 29.544838 0.401776 L -0.104021 0.401964 Z M -0.104383 -0.100583 " transform="matrix(-1.211435,-1.578773,1.578773,-1.211435,442.708126,483.701634)"/>
<path style=" stroke:none;fill-rule:nonzero;fill:rgb(0%,0%,0%);fill-opacity:1;" d="M 424.324219 473.089844 L 421.738281 471.59375 C 419.75 475.042969 424.921875 478.027344 426.910156 474.582031 C 428.898438 471.132812 423.730469 468.148438 421.738281 471.59375 Z M 424.324219 473.089844 "/>
<path style="fill:none;stroke-width:0.502513;stroke-linecap:round;stroke-linejoin:round;stroke:rgb(0%,0%,0%);stroke-opacity:1;stroke-miterlimit:10;" d="M 11.797069 12.332182 C 11.795943 10.657809 9.78727 10.657014 9.786695 12.332369 C 9.786121 14.007724 11.796494 14.007537 11.797069 12.332182 " transform="matrix(-1.723391,-0.995,0.995,-1.723391,431.025279,505.46)"/>
<path style="fill:none;stroke-width:0.502513;stroke-linecap:round;stroke-linejoin:round;stroke:rgb(0%,0%,0%);stroke-opacity:1;stroke-dasharray:1,4;stroke-dashoffset:2;stroke-miterlimit:10;" d="M 230.40201 187.18593 C 242.964824 187.18593 193.21608 167.58794 179.145729 160.050251 " transform="matrix(1.99,0,0,1.99,0,0)"/>
<path style="fill:none;stroke-width:0.502513;stroke-linecap:round;stroke-linejoin:round;stroke:rgb(0%,0%,0%);stroke-opacity:1;stroke-dasharray:1,4;stroke-dashoffset:2;stroke-miterlimit:10;" d="M 179.145729 160.050251 L 176.633166 159.045226 " transform="matrix(1.99,0,0,1.99,0,0)"/>
<path style="fill-rule:evenodd;fill:rgb(0%,0%,0%);fill-opacity:1;stroke-width:0.502513;stroke-linecap:round;stroke-linejoin:round;stroke:rgb(0%,0%,0%);stroke-opacity:1;stroke-miterlimit:10;" d="M 174.120603 157.537688 L 180.653266 157.537688 L 178.140704 159.547739 L 178.140704 163.065327 Z M 174.120603 157.537688 " transform="matrix(1.99,0,0,1.99,0,0)"/>
<path style="fill:none;stroke-width:0.502513;stroke-linecap:round;stroke-linejoin:round;stroke:rgb(0%,0%,0%);stroke-opacity:1;stroke-miterlimit:10;" d="M 162.060302 150 C 147.98995 146.482412 126.884422 134.422111 116.834171 124.371859 " transform="matrix(1.99,0,0,1.99,0,0)"/>
<path style="fill:none;stroke-width:0.502513;stroke-linecap:round;stroke-linejoin:round;stroke:rgb(0%,0%,0%);stroke-opacity:1;stroke-miterlimit:10;" d="M 116.834171 124.371859 L 114.824121 122.361809 " transform="matrix(1.99,0,0,1.99,0,0)"/>
<path style="fill-rule:evenodd;fill:rgb(0%,0%,0%);fill-opacity:1;stroke-width:0.502513;stroke-linecap:round;stroke-linejoin:round;stroke:rgb(0%,0%,0%);stroke-opacity:1;stroke-miterlimit:10;" d="M 112.311558 119.849246 L 118.844221 122.361809 L 115.829146 123.366834 L 114.824121 126.38191 Z M 112.311558 119.849246 " transform="matrix(1.99,0,0,1.99,0,0)"/>
<path style="fill:none;stroke-width:0.502513;stroke-linecap:round;stroke-linejoin:round;stroke:rgb(0%,0%,0%);stroke-opacity:1;stroke-miterlimit:10;" d="M 112.311558 119.849246 L 126.38191 147.487437 " transform="matrix(1.99,0,0,1.99,0,0)"/>
<path style="fill-rule:evenodd;fill:rgb(0%,0%,0%);fill-opacity:1;stroke-width:0.502513;stroke-linecap:round;stroke-linejoin:round;stroke:rgb(0%,0%,0%);stroke-opacity:1;stroke-miterlimit:10;" d="M 127.386935 150 L 122.361809 145.979899 L 125.376884 145.979899 L 127.386935 143.467337 Z M 127.386935 150 " transform="matrix(1.99,0,0,1.99,0,0)"/>
<path style="fill:none;stroke-width:0.502513;stroke-linecap:round;stroke-linejoin:round;stroke:rgb(0%,0%,0%);stroke-opacity:1;stroke-dasharray:4,4;stroke-dashoffset:2;stroke-miterlimit:10;" d="M 127.386935 180.150754 C 127.386935 210.80402 198.743719 184.673367 224.371859 186.683417 " transform="matrix(1.99,0,0,1.99,0,0)"/>
<path style="fill:none;stroke-width:0.502513;stroke-linecap:round;stroke-linejoin:round;stroke:rgb(0%,0%,0%);stroke-opacity:1;stroke-dasharray:4,4;stroke-dashoffset:2;stroke-miterlimit:10;" d="M 224.371859 186.683417 L 227.386935 186.683417 " transform="matrix(1.99,0,0,1.99,0,0)"/>
<path style="fill-rule:evenodd;fill:rgb(0%,0%,0%);fill-opacity:1;stroke-width:0.502513;stroke-linecap:round;stroke-linejoin:round;stroke:rgb(0%,0%,0%);stroke-opacity:1;stroke-miterlimit:10;" d="M 230.40201 187.18593 L 223.869347 189.698492 L 225.879397 186.683417 L 224.371859 183.668342 Z M 230.40201 187.18593 " transform="matrix(1.99,0,0,1.99,0,0)"/>
<path style="fill:none;stroke-width:0.502513;stroke-linecap:round;stroke-linejoin:round;stroke:rgb(0%,0%,0%);stroke-opacity:1;stroke-miterlimit:10;" d="M 0.251256 0.251256 L 300.251256 0.251256 " transform="matrix(1.99,0,0,1.99,0,0)"/>
<path style="fill:none;stroke-width:0.502513;stroke-linecap:round;stroke-linejoin:round;stroke:rgb(0%,0%,0%);stroke-opacity:1;stroke-miterlimit:10;" d="M 0.251256 300.251256 L 0.251256 0.251256 " transform="matrix(1.99,0,0,1.99,0,0)"/>
<path style="fill:none;stroke-width:0.502513;stroke-linecap:round;stroke-linejoin:round;stroke:rgb(0%,0%,0%);stroke-opacity:1;stroke-miterlimit:10;" d="M 300.251256 300.251256 L 300.251256 0.251256 " transform="matrix(1.99,0,0,1.99,0,0)"/>
<g clip-path="url(#clip2)" clip-rule="nonzero">
<path style="fill:none;stroke-width:0.502513;stroke-linecap:round;stroke-linejoin:round;stroke:rgb(0%,0%,0%);stroke-opacity:1;stroke-miterlimit:10;" d="M 270.100503 -50 L 669.59799 -50 L 669.59799 349.497487 L 270.100503 349.497487 Z M 270.100503 -50 " transform="matrix(1.99,0,0,1.99,0,0)"/>
</g>
<path style=" stroke:none;fill-rule:nonzero;fill:rgb(0%,0%,0%);fill-opacity:1;" d="M 1025.050781 226.859375 L 1084.75 226.859375 L 1084.75 268.648438 L 1025.050781 268.648438 Z M 1025.050781 226.859375 "/>
<path style="fill:none;stroke-width:0.837521;stroke-linecap:round;stroke-linejoin:round;stroke:rgb(0%,0%,0%);stroke-opacity:1;stroke-miterlimit:10;" d="M 171.775544 37.939698 L 181.490787 37.939698 L 181.490787 44.80737 L 171.775544 44.80737 Z M 171.775544 37.939698 " transform="matrix(5.97,0,0,5.97,0,0)"/>
<path style=" stroke:none;fill-rule:nonzero;fill:rgb(0%,0%,0%);fill-opacity:1;" d="M 839.980469 197.011719 L 881.769531 197.011719 L 881.769531 238.800781 L 839.980469 238.800781 Z M 839.980469 197.011719 "/>
<path style="fill:none;stroke-width:0.837521;stroke-linecap:round;stroke-linejoin:round;stroke:rgb(0%,0%,0%);stroke-opacity:1;stroke-miterlimit:10;" d="M 140.619765 33.082077 L 147.487437 33.082077 L 147.487437 39.782245 L 140.619765 39.782245 Z M 140.619765 33.082077 " transform="matrix(5.97,0,0,5.97,0,0)"/>
<path style=" stroke:none;fill-rule:nonzero;fill:rgb(0%,0%,0%);fill-opacity:1;" d="M 935.5 298.5 L 983.261719 298.5 L 983.261719 328.351562 L 935.5 328.351562 Z M 935.5 298.5 "/>
<path style="fill:none;stroke-width:0.837521;stroke-linecap:round;stroke-linejoin:round;stroke:rgb(0%,0%,0%);stroke-opacity:1;stroke-miterlimit:10;" d="M 156.700168 50 L 164.572864 50 L 164.572864 54.857621 L 156.700168 54.857621 Z M 156.700168 50 " transform="matrix(5.97,0,0,5.97,0,0)"/>
<path style=" stroke:none;fill-rule:nonzero;fill:rgb(0%,0%,0%);fill-opacity:1;" d="M 875.800781 298.5 L 905.652344 298.5 L 905.652344 358.199219 L 875.800781 358.199219 Z M 875.800781 298.5 "/>
<path style="fill:none;stroke-width:0.837521;stroke-linecap:round;stroke-linejoin:round;stroke:rgb(0%,0%,0%);stroke-opacity:1;stroke-miterlimit:10;" d="M 146.649916 50 L 151.507538 50 L 151.507538 59.882747 L 146.649916 59.882747 Z M 146.649916 50 " transform="matrix(5.97,0,0,5.97,0,0)"/>
<path style="fill:none;stroke-width:0.837521;stroke-linecap:round;stroke-linejoin:round;stroke:rgb(0%,0%,0%);stroke-opacity:1;stroke-miterlimit:10;" d="M 136.767169 30.067002 L 176.465662 30.067002 L 176.465662 69.765494 L 136.767169 69.765494 Z M 136.767169 30.067002 " transform="matrix(5.97,0,0,5.97,0,0)"/>
<path style=" stroke:none;fill-rule:nonzero;fill:rgb(0%,0%,0%);fill-opacity:1;" d="M 1095.234375 305.464844 L 1111.15625 305.464844 L 1111.15625 424.863281 L 1095.234375 424.863281 Z M 1095.234375 305.464844 "/>
<path style="fill:none;stroke-width:0.502513;stroke-linecap:round;stroke-linejoin:round;stroke:rgb(0%,0%,0%);stroke-opacity:1;stroke-miterlimit:10;" d="M 550.502513 153.517588 L 558.040201 153.517588 L 558.040201 212.81407 L 550.502513 212.81407 Z M 550.502513 153.517588 " transform="matrix(1.99,0,0,1.99,0,0)"/>
<path style="fill:none;stroke-width:0.502513;stroke-linecap:round;stroke-linejoin:round;stroke:rgb(0%,0%,0%);stroke-opacity:1;stroke-miterlimit:10;" d="M 586.180905 157.286432 C 586.180905 153.262406 582.918499 150 578.894472 150 C 574.870446 150 571.60804 153.262406 571.60804 157.286432 C 571.60804 161.310459 574.870446 164.572864 578.894472 164.572864 C 582.918499 164.572864 586.180905 161.310459 586.180905 157.286432 " transform="matrix(1.99,0,0,1.99,0,0)"/>
<path style="fill:none;stroke-width:0.502513;stroke-linecap:round;stroke-linejoin:round;stroke:rgb(0%,0%,0%);stroke-opacity:1;stroke-miterlimit:10;" d="M 578.643216 165.075377 L 579.145729 165.075377 L 579.145729 169.59799 L 578.643216 169.59799 Z M 578.643216 165.075377 " transform="matrix(1.99,0,0,1.99,0,0)"/>
<path style="fill:none;stroke-width:0.502513;stroke-linecap:round;stroke-linejoin:round;stroke:rgb(0%,0%,0%);stroke-opacity:1;stroke-miterlimit:10;" d="M -0.196671 0.0940275 L 0.306348 0.0943195 L 0.306689 9.641467 L -0.196329 9.641175 Z M -0.196671 0.0940275 " transform="matrix(1.723391,-0.995,0.995,1.723391,1136.889914,339.314142)"/>
<path style="fill:none;stroke-width:0.502513;stroke-linecap:round;stroke-linejoin:round;stroke:rgb(0%,0%,0%);stroke-opacity:1;stroke-miterlimit:10;" d="M -0.0327809 -0.0239597 L 0.469732 -0.0239597 L 0.469732 9.523779 L -0.0327809 9.523779 Z M -0.0327809 -0.0239597 " transform="matrix(0.000000000000000122,-1.99,1.99,0.000000000000000122,1148.563305,356.548047)"/>
<path style="fill:none;stroke-width:0.502513;stroke-linecap:round;stroke-linejoin:round;stroke:rgb(0%,0%,0%);stroke-opacity:1;stroke-miterlimit:10;" d="M 578.643216 179.145729 L 579.145729 179.145729 L 579.145729 198.743719 L 578.643216 198.743719 Z M 578.643216 179.145729 " transform="matrix(1.99,0,0,1.99,0,0)"/>
<path style="fill:none;stroke-width:0.502513;stroke-linecap:round;stroke-linejoin:round;stroke:rgb(0%,0%,0%);stroke-opacity:1;stroke-miterlimit:10;" d="M -0.227689 0.0768309 L 0.275329 0.0765389 L 0.274939 19.673853 L -0.228079 19.674145 Z M -0.227689 0.0768309 " transform="matrix(1.723391,0.995,-0.995,1.723391,1150.953219,396.348047)"/>
<path style="fill:none;stroke-width:0.502513;stroke-linecap:round;stroke-linejoin:round;stroke:rgb(0%,0%,0%);stroke-opacity:1;stroke-miterlimit:10;" d="M -0.0887799 0.0783473 L 0.414238 0.0786393 L 0.414629 19.675953 L -0.0883897 19.675661 Z M -0.0887799 0.0783473 " transform="matrix(1.723391,-0.995,0.995,1.723391,1152.676609,397.343047)"/>
<path style="fill:none;stroke-width:0.502513;stroke-linecap:round;stroke-linejoin:round;stroke:rgb(0%,0%,0%);stroke-opacity:1;stroke-miterlimit:10;" d="M 368.090452 86.683417 C 368.090452 82.798759 364.828046 79.648241 360.80402 79.648241 C 356.779994 79.648241 353.517588 82.798759 353.517588 86.683417 C 353.517588 90.568075 356.779994 93.718593 360.80402 93.718593 C 364.828046 93.718593 368.090452 90.568075 368.090452 86.683417 " transform="matrix(1.99,0,0,1.99,0,0)"/>
<path style="fill:none;stroke-width:0.502513;stroke-linecap:round;stroke-linejoin:round;stroke:rgb(0%,0%,0%);stroke-opacity:1;stroke-miterlimit:10;" d="M 360.552764 94.221106 L 361.055276 94.221106 L 361.055276 98.743719 L 360.552764 98.743719 Z M 360.552764 94.221106 " transform="matrix(1.99,0,0,1.99,0,0)"/>
<path style="fill:none;stroke-width:0.502513;stroke-linecap:round;stroke-linejoin:round;stroke:rgb(0%,0%,0%);stroke-opacity:1;stroke-miterlimit:10;" d="M -0.204563 0.249448 L 0.298456 0.24974 L 0.298107 9.295569 L -0.204911 9.295277 Z M -0.204563 0.249448 " transform="matrix(1.723391,-0.995,0.995,1.723391,702.909028,206.003283)"/>
<path style="fill:none;stroke-width:0.502513;stroke-linecap:round;stroke-linejoin:round;stroke:rgb(0%,0%,0%);stroke-opacity:1;stroke-miterlimit:10;" d="M 0.186897 -0.211234 L 0.688691 -0.211861 L 0.688079 14.361104 L 0.186284 14.36173 Z M 0.186897 -0.211234 " transform="matrix(1.609944,1.169693,-1.169693,1.609944,732.127809,197.918339)"/>
<path style="fill:none;stroke-width:0.502513;stroke-linecap:round;stroke-linejoin:round;stroke:rgb(0%,0%,0%);stroke-opacity:1;stroke-miterlimit:10;" d="M 360.552764 112.311558 L 361.055276 112.311558 L 361.055276 131.909548 L 360.552764 131.909548 Z M 360.552764 112.311558 " transform="matrix(1.99,0,0,1.99,0,0)"/>
<path style="fill:none;stroke-width:0.502513;stroke-linecap:round;stroke-linejoin:round;stroke:rgb(0%,0%,0%);stroke-opacity:1;stroke-miterlimit:10;" d="M -0.0508948 0.232199 L 0.452123 0.231907 L 0.452423 19.327903 L -0.0505956 19.328195 Z M -0.0508948 0.232199 " transform="matrix(1.723391,0.995,-0.995,1.723391,716.6,263.037189)"/>
<path style="fill:none;stroke-width:0.502513;stroke-linecap:round;stroke-linejoin:round;stroke:rgb(0%,0%,0%);stroke-opacity:1;stroke-miterlimit:10;" d="M 0.0893929 0.234661 L 0.592411 0.234953 L 0.592112 19.330949 L 0.0890937 19.330657 Z M 0.0893929 0.234661 " transform="matrix(1.723391,-0.995,0.995,1.723391,718.323391,264.032189)"/>
<path style=" stroke:none;fill-rule:nonzero;fill:rgb(0%,0%,0%);fill-opacity:1;" d="M 759.847656 168.609375 L 775.769531 168.609375 L 775.769531 288.007812 L 759.847656 288.007812 Z M 759.847656 168.609375 "/>
<path style="fill:none;stroke-width:0.502513;stroke-linecap:round;stroke-linejoin:round;stroke:rgb(0%,0%,0%);stroke-opacity:1;stroke-miterlimit:10;" d="M 381.658291 84.673367 L 389.19598 84.673367 L 389.19598 144.472362 L 381.658291 144.472362 Z M 381.658291 84.673367 " transform="matrix(1.99,0,0,1.99,0,0)"/>
<path style=" stroke:none;fill-rule:nonzero;fill:rgb(100%,100%,100%);fill-opacity:1;" d="M 749.917969 41.515625 L 759.867188 58.75 C 769.386719 53.253906 772.648438 41.085938 767.152344 31.566406 C 761.65625 22.046875 749.484375 18.789062 739.96875 24.28125 C 730.449219 29.777344 727.1875 41.949219 732.683594 51.464844 C 738.179688 60.984375 750.347656 64.246094 759.867188 58.75 Z M 749.917969 41.515625 "/>
<path style="fill:none;stroke-width:0.502513;stroke-linecap:round;stroke-linejoin:round;stroke:rgb(0%,0%,0%);stroke-opacity:1;stroke-miterlimit:10;" d="M 19.675695 12.090452 C 19.676906 6.678492 15.288084 2.29052 9.876843 2.29199 C 4.464883 2.290779 0.0778921 6.677901 0.078381 12.090842 C 0.0771698 17.502801 4.464292 21.889793 9.877233 21.889304 C 15.287493 21.889533 19.676184 17.503393 19.675695 12.090452 " transform="matrix(0.995,1.723391,-1.723391,0.995,761.345191,11.94)"/>
<path style=" stroke:none;fill-rule:nonzero;fill:rgb(100%,100%,100%);fill-opacity:1;" d="M 757.203125 14.332031 L 774.117188 43.628906 L 739.648438 63.527344 L 722.734375 34.230469 Z M 757.203125 14.332031 "/>
<path style="fill:none;stroke-width:0.502513;stroke-linecap:round;stroke-linejoin:round;stroke:rgb(100%,100%,100%);stroke-opacity:1;stroke-miterlimit:10;" d="M 0.0781858 2.292185 L 16.66079 2.292006 L 16.66118 21.88932 L 0.0785761 21.889499 Z M 0.0781858 2.292185 " transform="matrix(0.995,1.723391,-1.723391,0.995,761.345191,11.94)"/>
<path style=" stroke:none;fill-rule:nonzero;fill:rgb(100%,100%,100%);fill-opacity:1;" d="M 741.558594 23.363281 L 788.921875 59.707031 L 787.710938 61.285156 L 740.347656 24.941406 Z M 741.558594 23.363281 "/>
<path style="fill:none;stroke-width:0.502513;stroke-linecap:round;stroke-linejoin:round;stroke:rgb(0%,0%,0%);stroke-opacity:1;stroke-miterlimit:10;" d="M -0.0303077 0.0679066 L 29.618551 0.0680946 L 29.618188 0.570641 L -0.0306699 0.570454 Z M -0.0303077 0.0679066 " transform="matrix(1.578773,1.211435,-1.211435,1.578773,741.559801,23.3631)"/>
<path style=" stroke:none;fill-rule:nonzero;fill:rgb(100%,100%,100%);fill-opacity:1;" d="M 740.347656 24.941406 L 748.140625 84.128906 L 746.167969 84.386719 L 738.375 25.199219 Z M 740.347656 24.941406 "/>
<path style="fill:none;stroke-width:0.502513;stroke-linecap:round;stroke-linejoin:round;stroke:rgb(0%,0%,0%);stroke-opacity:1;stroke-miterlimit:10;" d="M 0.0764053 -0.221227 L 29.724949 -0.220262 L 29.724093 0.282515 L 0.0755495 0.281549 Z M 0.0764053 -0.221227 " transform="matrix(0.259747,1.972975,-1.972975,0.259747,740.348366,24.941874)"/>
<path style=" stroke:none;fill-rule:nonzero;fill:rgb(0%,0%,0%);fill-opacity:1;" d="M 750.960938 43.324219 L 752.453125 45.910156 C 755.902344 43.921875 752.917969 38.75 749.46875 40.738281 C 746.023438 42.730469 749.007812 47.898438 752.453125 45.910156 Z M 750.960938 43.324219 "/>
<path style="fill:none;stroke-width:0.502513;stroke-linecap:round;stroke-linejoin:round;stroke:rgb(0%,0%,0%);stroke-opacity:1;stroke-miterlimit:10;" d="M 12.13892 12.090979 C 12.138345 10.415624 9.624954 10.415146 9.625529 12.090501 C 9.626104 13.765856 12.137795 13.765353 12.13892 12.090979 " transform="matrix(0.995,1.723391,-1.723391,0.995,761.345191,11.94)"/>
<path style=" stroke:none;fill-rule:nonzero;fill:rgb(100%,100%,100%);fill-opacity:1;" d="M 869.316406 495.785156 L 879.269531 478.550781 C 869.75 473.054688 857.578125 476.316406 852.082031 485.832031 C 846.589844 495.351562 849.847656 507.523438 859.367188 513.019531 C 868.886719 518.511719 881.054688 515.25 886.550781 505.734375 C 892.046875 496.214844 888.785156 484.046875 879.269531 478.550781 Z M 869.316406 495.785156 "/>
<path style="fill:none;stroke-width:0.502513;stroke-linecap:round;stroke-linejoin:round;stroke:rgb(0%,0%,0%);stroke-opacity:1;stroke-miterlimit:10;" d="M 19.351622 12.224528 C 19.352111 6.811587 14.96512 2.424465 9.552179 2.423976 C 4.140219 2.425187 -0.246903 6.812178 -0.245692 12.224138 C -0.247162 17.635379 4.139829 22.022501 9.55277 22.02299 C 14.96473 22.021779 19.351852 17.634787 19.351622 12.224528 " transform="matrix(0.995,-1.723391,1.723391,0.995,837.99,500.675279)"/>
<path style=" stroke:none;fill-rule:nonzero;fill:rgb(100%,100%,100%);fill-opacity:1;" d="M 842.132812 503.066406 L 859.046875 473.769531 L 893.515625 493.667969 L 876.601562 522.964844 Z M 842.132812 503.066406 "/>
<path style="fill:none;stroke-width:0.502513;stroke-linecap:round;stroke-linejoin:round;stroke:rgb(100%,100%,100%);stroke-opacity:1;stroke-miterlimit:10;" d="M -0.246478 2.423781 L 16.336126 2.42396 L 16.335736 22.021274 L -0.246868 22.021095 Z M -0.246478 2.423781 " transform="matrix(0.995,-1.723391,1.723391,0.995,837.99,500.675279)"/>
<path style=" stroke:none;fill-rule:nonzero;fill:rgb(100%,100%,100%);fill-opacity:1;" d="M 857.773438 512.097656 L 865.566406 452.910156 L 867.539062 453.167969 L 859.746094 512.355469 Z M 857.773438 512.097656 "/>
<path style="fill:none;stroke-width:0.502513;stroke-linecap:round;stroke-linejoin:round;stroke:rgb(0%,0%,0%);stroke-opacity:1;stroke-miterlimit:10;" d="M -0.139416 0.201493 L 29.509127 0.200528 L 29.509983 0.703304 L -0.13856 0.70427 Z M -0.139416 0.201493 " transform="matrix(0.259747,-1.972975,1.972975,0.259747,857.77539,512.098379)"/>
<path style=" stroke:none;fill-rule:nonzero;fill:rgb(100%,100%,100%);fill-opacity:1;" d="M 859.75 512.359375 L 907.113281 476.015625 L 908.324219 477.59375 L 860.960938 513.9375 Z M 859.75 512.359375 "/>
<path style="fill:none;stroke-width:0.502513;stroke-linecap:round;stroke-linejoin:round;stroke:rgb(0%,0%,0%);stroke-opacity:1;stroke-miterlimit:10;" d="M -0.124955 0.0706833 L 29.523904 0.0704953 L 29.524266 0.573042 L -0.124592 0.57323 Z M -0.124955 0.0706833 " transform="matrix(1.578773,-1.211435,1.211435,1.578773,859.748366,512.358126)"/>
<path style=" stroke:none;fill-rule:nonzero;fill:rgb(0%,0%,0%);fill-opacity:1;" d="M 870.363281 493.976562 L 871.855469 491.390625 C 868.40625 489.398438 865.421875 494.570312 868.871094 496.558594 C 872.316406 498.550781 875.300781 493.378906 871.855469 491.390625 Z M 870.363281 493.976562 "/>
<path style="fill:none;stroke-width:0.502513;stroke-linecap:round;stroke-linejoin:round;stroke:rgb(0%,0%,0%);stroke-opacity:1;stroke-miterlimit:10;" d="M 11.814848 12.224 C 11.813722 10.549627 9.302031 10.549124 9.301456 12.224479 C 9.302581 13.898852 11.814273 13.899355 11.814848 12.224 " transform="matrix(0.995,-1.723391,1.723391,0.995,837.99,500.675279)"/>
<path style=" stroke:none;fill-rule:nonzero;fill:rgb(100%,100%,100%);fill-opacity:1;" d="M 1063.132812 474.132812 L 1045.898438 464.183594 C 1040.40625 473.699219 1043.664062 485.871094 1053.183594 491.367188 C 1062.703125 496.863281 1074.871094 493.601562 1080.367188 484.082031 C 1085.863281 474.5625 1082.601562 462.394531 1073.082031 456.898438 C 1063.566406 451.402344 1051.394531 454.664062 1045.898438 464.183594 Z M 1063.132812 474.132812 "/>
<path style="fill:none;stroke-width:0.502513;stroke-linecap:round;stroke-linejoin:round;stroke:rgb(0%,0%,0%);stroke-opacity:1;stroke-miterlimit:10;" d="M 19.333843 12.33271 C 19.334332 6.919769 15.059101 2.533853 9.785909 2.532012 C 4.513698 2.53187 0.238336 6.920068 0.239548 12.332028 C 0.238077 17.743269 4.514289 22.130884 9.7865 22.131026 C 15.058711 22.131167 19.334073 17.74297 19.333843 12.33271 " transform="matrix(-1.723391,-0.995,0.995,-1.723391,1068.025279,505.46)"/>
<path style=" stroke:none;fill-rule:nonzero;fill:rgb(100%,100%,100%);fill-opacity:1;" d="M 1070.417969 501.316406 L 1041.121094 484.402344 L 1061.019531 449.933594 L 1090.316406 466.847656 Z M 1070.417969 501.316406 "/>
<path style="fill:none;stroke-width:0.502513;stroke-linecap:round;stroke-linejoin:round;stroke:rgb(100%,100%,100%);stroke-opacity:1;stroke-miterlimit:10;" d="M 0.238761 2.531671 L 16.318347 2.532142 L 16.317957 22.129456 L 0.238371 22.128985 Z M 0.238761 2.531671 " transform="matrix(-1.723391,-0.995,0.995,-1.723391,1068.025279,505.46)"/>
<path style=" stroke:none;fill-rule:nonzero;fill:rgb(100%,100%,100%);fill-opacity:1;" d="M 1079.449219 485.675781 L 1020.261719 477.882812 L 1020.519531 475.910156 L 1079.707031 483.703125 Z M 1079.449219 485.675781 "/>
<path style="fill:none;stroke-width:0.502513;stroke-linecap:round;stroke-linejoin:round;stroke:rgb(0%,0%,0%);stroke-opacity:1;stroke-miterlimit:10;" d="M 0.0257207 -0.0871349 L 29.674264 -0.0881005 L 29.67512 0.414676 L 0.0265765 0.415641 Z M 0.0257207 -0.0871349 " transform="matrix(-1.972975,-0.259747,0.259747,-1.972975,1079.448379,485.67461)"/>
<path style=" stroke:none;fill-rule:nonzero;fill:rgb(100%,100%,100%);fill-opacity:1;" d="M 1079.707031 483.703125 L 1043.363281 436.339844 L 1044.941406 435.128906 L 1081.285156 482.492188 Z M 1079.707031 483.703125 "/>
<path style="fill:none;stroke-width:0.502513;stroke-linecap:round;stroke-linejoin:round;stroke:rgb(0%,0%,0%);stroke-opacity:1;stroke-miterlimit:10;" d="M -0.104383 -0.100583 L 29.544476 -0.100771 L 29.544838 0.401776 L -0.104021 0.401964 Z M -0.104383 -0.100583 " transform="matrix(-1.211435,-1.578773,1.578773,-1.211435,1079.708126,483.701634)"/>
<path style=" stroke:none;fill-rule:nonzero;fill:rgb(0%,0%,0%);fill-opacity:1;" d="M 1061.324219 473.089844 L 1058.738281 471.59375 C 1056.75 475.042969 1061.921875 478.027344 1063.910156 474.582031 C 1065.898438 471.132812 1060.730469 468.148438 1058.738281 471.59375 Z M 1061.324219 473.089844 "/>
<path style="fill:none;stroke-width:0.502513;stroke-linecap:round;stroke-linejoin:round;stroke:rgb(0%,0%,0%);stroke-opacity:1;stroke-miterlimit:10;" d="M 11.797069 12.332182 C 11.795943 10.657809 9.78727 10.657014 9.786695 12.332369 C 9.786121 14.007724 11.796494 14.007537 11.797069 12.332182 " transform="matrix(-1.723391,-0.995,0.995,-1.723391,1068.025279,505.46)"/>
<path style="fill:none;stroke-width:0.502513;stroke-linecap:round;stroke-linejoin:round;stroke:rgb(0%,0%,0%);stroke-opacity:1;stroke-dasharray:1,4;stroke-dashoffset:2;stroke-miterlimit:10;" d="M 550.502513 187.18593 C 563.065327 187.18593 513.316583 167.58794 499.246231 160.050251 " transform="matrix(1.99,0,0,1.99,0,0)"/>
<path style="fill:none;stroke-width:0.502513;stroke-linecap:round;stroke-linejoin:round;stroke:rgb(0%,0%,0%);stroke-opacity:1;stroke-dasharray:1,4;stroke-dashoffset:2;stroke-miterlimit:10;" d="M 499.246231 160.050251 L 496.733668 159.045226 " transform="matrix(1.99,0,0,1.99,0,0)"/>
<path style="fill-rule:evenodd;fill:rgb(0%,0%,0%);fill-opacity:1;stroke-width:0.502513;stroke-linecap:round;stroke-linejoin:round;stroke:rgb(0%,0%,0%);stroke-opacity:1;stroke-miterlimit:10;" d="M 494.221106 157.537688 L 500.753769 157.537688 L 498.241206 159.547739 L 498.241206 163.065327 Z M 494.221106 157.537688 " transform="matrix(1.99,0,0,1.99,0,0)"/>
<path style="fill:none;stroke-width:0.502513;stroke-linecap:round;stroke-linejoin:round;stroke:rgb(0%,0%,0%);stroke-opacity:1;stroke-miterlimit:10;" d="M 482.160804 150 C 468.090452 146.482412 446.984925 134.422111 436.934673 124.371859 " transform="matrix(1.99,0,0,1.99,0,0)"/>
<path style="fill:none;stroke-width:0.502513;stroke-linecap:round;stroke-linejoin:round;stroke:rgb(0%,0%,0%);stroke-opacity:1;stroke-miterlimit:10;" d="M 436.934673 124.371859 L 434.924623 122.361809 " transform="matrix(1.99,0,0,1.99,0,0)"/>
<path style="fill-rule:evenodd;fill:rgb(0%,0%,0%);fill-opacity:1;stroke-width:0.502513;stroke-linecap:round;stroke-linejoin:round;stroke:rgb(0%,0%,0%);stroke-opacity:1;stroke-miterlimit:10;" d="M 432.41206 119.849246 L 438.944724 122.361809 L 435.929648 123.366834 L 434.924623 126.38191 Z M 432.41206 119.849246 " transform="matrix(1.99,0,0,1.99,0,0)"/>
<path style="fill:none;stroke-width:0.502513;stroke-linecap:round;stroke-linejoin:round;stroke:rgb(0%,0%,0%);stroke-opacity:1;stroke-miterlimit:10;" d="M 432.41206 119.849246 L 446.482412 147.487437 " transform="matrix(1.99,0,0,1.99,0,0)"/>
<path style="fill-rule:evenodd;fill:rgb(0%,0%,0%);fill-opacity:1;stroke-width:0.502513;stroke-linecap:round;stroke-linejoin:round;stroke:rgb(0%,0%,0%);stroke-opacity:1;stroke-miterlimit:10;" d="M 447.487437 150 L 442.462312 145.979899 L 445.477387 145.979899 L 447.487437 143.467337 Z M 447.487437 150 " transform="matrix(1.99,0,0,1.99,0,0)"/>
<path style="fill:none;stroke-width:0.502513;stroke-linecap:round;stroke-linejoin:round;stroke:rgb(0%,0%,0%);stroke-opacity:1;stroke-dasharray:4,4;stroke-dashoffset:2;stroke-miterlimit:10;" d="M 447.487437 180.150754 C 433.919598 176.130653 444.974874 216.834171 444.974874 231.407035 " transform="matrix(1.99,0,0,1.99,0,0)"/>
<path style="fill:none;stroke-width:0.502513;stroke-linecap:round;stroke-linejoin:round;stroke:rgb(0%,0%,0%);stroke-opacity:1;stroke-dasharray:4,4;stroke-dashoffset:2;stroke-miterlimit:10;" d="M 444.974874 231.407035 L 444.974874 234.422111 " transform="matrix(1.99,0,0,1.99,0,0)"/>
<path style="fill-rule:evenodd;fill:rgb(0%,0%,0%);fill-opacity:1;stroke-width:0.502513;stroke-linecap:round;stroke-linejoin:round;stroke:rgb(0%,0%,0%);stroke-opacity:1;stroke-miterlimit:10;" d="M 444.974874 237.437186 L 441.959799 231.407035 L 444.974874 232.914573 L 447.98995 231.407035 Z M 444.974874 237.437186 " transform="matrix(1.99,0,0,1.99,0,0)"/>
<path style="fill:none;stroke-width:0.502513;stroke-linecap:round;stroke-linejoin:round;stroke:rgb(0%,0%,0%);stroke-opacity:1;stroke-dasharray:4,4;stroke-dashoffset:2;stroke-miterlimit:10;" d="M 447.487437 180.150754 C 429.396985 198.241206 517.336683 202.261307 517.336683 223.869347 " transform="matrix(1.99,0,0,1.99,0,0)"/>
<path style="fill:none;stroke-width:0.502513;stroke-linecap:round;stroke-linejoin:round;stroke:rgb(0%,0%,0%);stroke-opacity:1;stroke-dasharray:4,4;stroke-dashoffset:2;stroke-miterlimit:10;" d="M 517.336683 223.869347 L 517.336683 226.884422 " transform="matrix(1.99,0,0,1.99,0,0)"/>
<path style="fill-rule:evenodd;fill:rgb(0%,0%,0%);fill-opacity:1;stroke-width:0.502513;stroke-linecap:round;stroke-linejoin:round;stroke:rgb(0%,0%,0%);stroke-opacity:1;stroke-miterlimit:10;" d="M 517.336683 229.899497 L 514.321608 223.869347 L 517.336683 225.376884 L 520.351759 223.869347 Z M 517.336683 229.899497 " transform="matrix(1.99,0,0,1.99,0,0)"/>
<path style="fill:none;stroke-width:0.502513;stroke-linecap:round;stroke-linejoin:round;stroke:rgb(0%,0%,0%);stroke-opacity:1;stroke-miterlimit:10;" d="M 320.351759 0.251256 L 620.351759 0.251256 " transform="matrix(1.99,0,0,1.99,0,0)"/>
<path style="fill:none;stroke-width:0.502513;stroke-linecap:round;stroke-linejoin:round;stroke:rgb(0%,0%,0%);stroke-opacity:1;stroke-miterlimit:10;" d="M 320.351759 300.251256 L 320.351759 0.251256 " transform="matrix(1.99,0,0,1.99,0,0)"/>
</g>
</svg>
